<?xml version="1.0" encoding="UTF-8" standalone="no"?><!DOCTYPE svg PUBLIC "-//W3C//DTD SVG 1.1//EN" "http://www.w3.org/Graphics/SVG/1.1/DTD/svg11.dtd"><svg width="100%" height="100%" viewBox="0 0 2500 2500" version="1.1" xmlns="http://www.w3.org/2000/svg" xmlns:xlink="http://www.w3.org/1999/xlink" xml:space="preserve" xmlns:serif="http://www.serif.com/" style="fill-rule:evenodd;clip-rule:evenodd;stroke-linecap:round;stroke-linejoin:round;stroke-miterlimit:1.5;"><rect x="0" y="0" width="2500" height="2500" style="fill:none;"/><g id="fair"><ellipse id="clearsky" cx="1083.47" cy="1249.62" rx="853.843" ry="848.894" style="fill:#ffd600;"/><clipPath id="_clip1"><ellipse cx="1083.47" cy="1249.62" rx="853.843" ry="848.894"/></clipPath><g clip-path="url(#_clip1)"><ellipse cx="1083.47" cy="1249.62" rx="685.011" ry="681.041" style="fill:#ffa500;"/></g><path id="cloudy" d="M1375.32,1531.75c11.057,-155.867 141.927,-279.093 301.519,-279.093c131.363,0 243.267,83.49 284.913,199.972c32.372,-17.372 69.423,-27.237 108.772,-27.237c126.689,-0 229.545,102.259 229.545,228.214c-0,125.955 -104.615,233.562 -231.304,233.562l-748.254,0c-99.804,0 -180.833,-84.827 -180.833,-184.053c0,-99.226 81.029,-179.785 180.833,-179.785c19.103,-0 37.517,2.951 54.809,8.42Z" style="fill:#fff;stroke:#cdcdcd;stroke-width:145.83px;"/></g></svg>