<?xml version="1.0" encoding="UTF-8" standalone="no"?><!DOCTYPE svg PUBLIC "-//W3C//DTD SVG 1.1//EN" "http://www.w3.org/Graphics/SVG/1.1/DTD/svg11.dtd"><svg width="100%" height="100%" viewBox="0 0 2500 2500" version="1.1" xmlns="http://www.w3.org/2000/svg" xmlns:xlink="http://www.w3.org/1999/xlink" xml:space="preserve" xmlns:serif="http://www.serif.com/" style="fill-rule:evenodd;clip-rule:evenodd;stroke-linejoin:round;stroke-miterlimit:2;"><rect x="0" y="0" width="2500" height="2500" style="fill:none;"/><g id="fog"><path d="M2424.86,749.055c-0,-73.658 -59.801,-133.459 -133.459,-133.459l-2053.11,-0c-73.658,-0 -133.459,59.801 -133.459,133.459c0,73.658 59.801,133.459 133.459,133.459l2053.11,0c73.658,0 133.459,-59.801 133.459,-133.459Z" style="fill:#c1c1c1;"/><path d="M2424.86,1249.62c-0,-73.658 -59.801,-133.46 -133.459,-133.46l-2053.11,0c-73.658,0 -133.459,59.802 -133.459,133.46c0,73.658 59.801,133.459 133.459,133.459l2053.11,0c73.658,0 133.459,-59.801 133.459,-133.459Z" style="fill:#c1c1c1;"/><path d="M2424.86,1750.18c-0,-73.658 -59.801,-133.459 -133.459,-133.459l-2053.11,-0c-73.658,-0 -133.459,59.801 -133.459,133.459c0,73.658 59.801,133.459 133.459,133.459l2053.11,0c73.658,0 133.459,-59.801 133.459,-133.459Z" style="fill:#c1c1c1;"/></g></svg>