<?xml version="1.0" encoding="UTF-8" standalone="no"?><!DOCTYPE svg PUBLIC "-//W3C//DTD SVG 1.1//EN" "http://www.w3.org/Graphics/SVG/1.1/DTD/svg11.dtd"><svg width="100%" height="100%" viewBox="0 0 2500 2500" version="1.1" xmlns="http://www.w3.org/2000/svg" xmlns:xlink="http://www.w3.org/1999/xlink" xml:space="preserve" xmlns:serif="http://www.serif.com/" style="fill-rule:evenodd;clip-rule:evenodd;stroke-linecap:round;stroke-linejoin:round;stroke-miterlimit:1.5;"><rect x="0" y="0" width="2500" height="2500" style="fill:none;"/><g><g id="heavyrainandthunder"><g id="lightning"><path d="M1408.72,1706.71l-164.915,-72.419l67.552,-367.833l-253.622,465.826l170.203,72.18l-110.344,418.024l291.126,-515.778Z" style="fill:#ffdd15;fill-rule:nonzero;"/></g><g><path id="cloudy" d="M599.098,816.006c21.364,-301.165 274.233,-539.263 582.595,-539.263c253.82,0 470.042,161.319 550.51,386.385c62.549,-33.565 134.138,-52.626 210.169,-52.626c244.789,-0 443.526,197.585 443.526,440.955c-0,243.37 -202.136,451.289 -446.924,451.289l-1445.78,-0c-192.843,-0 -349.406,-163.904 -349.406,-355.628c0,-191.725 156.563,-347.381 349.406,-347.381c36.91,0 72.491,5.702 105.901,16.269Z" style="fill:#808080;stroke:#cdcdcd;stroke-width:145.83px;"/></g><g><path d="M469.144,1676.78c-38.391,-22.037 -87.607,-8.85 -109.837,29.429l-107.758,185.562c-22.229,38.279 -9.108,87.248 29.283,109.284c38.391,22.037 87.607,8.85 109.836,-29.429l107.759,-185.562c22.229,-38.279 9.108,-87.248 -29.283,-109.284Z" style="fill:#4a89c5;"/><path d="M874.3,1676.78c-38.391,-22.037 -87.607,-8.85 -109.836,29.429l-107.758,185.562c-22.23,38.279 -9.108,87.248 29.283,109.284c38.391,22.037 87.607,8.85 109.836,-29.429l107.758,-185.562c22.23,-38.279 9.108,-87.248 -29.283,-109.284Z" style="fill:#4a89c5;"/><path d="M1776.79,1676.78c-38.391,-22.037 -87.607,-8.85 -109.836,29.429l-107.759,185.562c-22.229,38.279 -9.108,87.248 29.283,109.284c38.391,22.037 87.607,8.85 109.837,-29.429l107.758,-185.562c22.229,-38.279 9.108,-87.248 -29.283,-109.284Z" style="fill:#4a89c5;"/><path d="M2162.82,1676.78c-38.391,-22.037 -87.607,-8.85 -109.837,29.429l-107.758,185.562c-22.229,38.279 -9.108,87.248 29.283,109.284c38.391,22.037 87.607,8.85 109.836,-29.429l107.759,-185.562c22.229,-38.279 9.108,-87.248 -29.283,-109.284Z" style="fill:#4a89c5;"/></g></g></g></svg>