<?xml version="1.0" encoding="UTF-8" standalone="no"?><!DOCTYPE svg PUBLIC "-//W3C//DTD SVG 1.1//EN" "http://www.w3.org/Graphics/SVG/1.1/DTD/svg11.dtd"><svg width="100%" height="100%" viewBox="0 0 2500 2500" version="1.1" xmlns="http://www.w3.org/2000/svg" xmlns:xlink="http://www.w3.org/1999/xlink" xml:space="preserve" xmlns:serif="http://www.serif.com/" style="fill-rule:evenodd;clip-rule:evenodd;stroke-linecap:round;stroke-linejoin:round;stroke-miterlimit:1.5;"><rect x="0" y="0" width="2500" height="2500" style="fill:none;"/><g><g id="heavysnowandthunder"><g id="lightning"><path d="M1451.71,1704.62l-162.85,-71.513l66.707,-363.226l-250.447,459.992l168.072,71.277l-108.962,412.789l287.48,-509.319Z" style="fill:#ffdd15;fill-rule:nonzero;"/></g><path id="cloudy" d="M607.435,817.805c21.096,-297.394 270.798,-532.511 575.299,-532.511c250.642,0 464.156,159.299 543.617,381.547c61.766,-33.145 132.458,-51.968 207.537,-51.968c241.724,0 437.972,195.112 437.972,435.434c0,240.323 -199.604,445.638 -441.327,445.638l-1427.67,0c-190.428,0 -345.03,-161.851 -345.03,-351.175c-0,-189.324 154.602,-343.031 345.03,-343.031c36.448,0 71.583,5.631 104.576,16.066Z" style="fill:#808080;stroke:#cdcdcd;stroke-width:145.83px;"/><g><g id="snow"><path d="M461.299,1962.58c13.635,-13.556 13.635,-35.568 0,-49.124l-200.732,-199.569c-13.635,-13.556 -35.775,-13.556 -49.41,0.001c-13.636,13.556 -13.636,35.568 -0.001,49.124l200.732,199.569c13.635,13.556 35.775,13.555 49.411,-0.001Z" style="fill:#00daff;"/><path d="M336.228,2014.09c19.283,0 34.938,-15.655 34.938,-34.939l0,-281.827c0,-19.283 -15.655,-34.938 -34.938,-34.938c-19.284,-0 -34.939,15.655 -34.939,34.938l-0,281.827c-0,19.284 15.655,34.939 34.939,34.939Z" style="fill:#00daff;"/><path d="M211.157,1962.58c13.635,13.556 35.775,13.557 49.41,0.001l200.732,-199.569c13.635,-13.556 13.635,-35.568 -0,-49.124c-13.636,-13.557 -35.776,-13.557 -49.411,-0.001l-200.732,199.569c-13.635,13.556 -13.635,35.568 0.001,49.124Z" style="fill:#00daff;"/><path d="M159.35,1838.24c0,19.171 15.565,34.736 34.737,34.736l284.282,0c19.171,0 34.736,-15.565 34.736,-34.736c-0,-19.172 -15.565,-34.736 -34.736,-34.736l-284.282,-0c-19.172,-0 -34.737,15.564 -34.737,34.736Z" style="fill:#00daff;"/></g><g id="snow1" serif:id="snow"><path d="M966.16,1962.58c13.635,-13.556 13.635,-35.568 0,-49.124l-200.732,-199.569c-13.635,-13.556 -35.775,-13.556 -49.411,0.001c-13.635,13.556 -13.635,35.568 0,49.124l200.732,199.569c13.635,13.556 35.775,13.555 49.411,-0.001Z" style="fill:#00daff;"/><path d="M841.089,2014.09c19.283,0 34.938,-15.655 34.938,-34.939l0,-281.827c0,-19.283 -15.655,-34.938 -34.938,-34.938c-19.284,-0 -34.939,15.655 -34.939,34.938l-0,281.827c-0,19.284 15.655,34.939 34.939,34.939Z" style="fill:#00daff;"/><path d="M716.017,1962.58c13.636,13.556 35.776,13.557 49.411,0.001l200.732,-199.569c13.635,-13.556 13.635,-35.568 -0,-49.124c-13.636,-13.557 -35.776,-13.557 -49.411,-0.001l-200.732,199.569c-13.635,13.556 -13.635,35.568 0,49.124Z" style="fill:#00daff;"/><path d="M664.211,1838.24c0,19.171 15.565,34.736 34.737,34.736l284.282,0c19.171,0 34.736,-15.565 34.736,-34.736c-0,-19.172 -15.565,-34.736 -34.736,-34.736l-284.282,-0c-19.172,-0 -34.737,15.564 -34.737,34.736Z" style="fill:#00daff;"/></g><g id="snow2" serif:id="snow"><path d="M1777.67,1962.58c13.635,-13.556 13.635,-35.568 0,-49.124l-200.732,-199.569c-13.635,-13.556 -35.775,-13.556 -49.41,0.001c-13.636,13.556 -13.636,35.568 -0.001,49.124l200.733,199.569c13.635,13.556 35.775,13.555 49.41,-0.001Z" style="fill:#00daff;"/><path d="M1652.6,2014.09c19.283,0 34.939,-15.655 34.939,-34.939l-0,-281.827c-0,-19.283 -15.656,-34.938 -34.939,-34.938c-19.283,-0 -34.939,15.655 -34.939,34.938l0,281.827c0,19.284 15.656,34.939 34.939,34.939Z" style="fill:#00daff;"/><path d="M1527.53,1962.58c13.635,13.556 35.775,13.557 49.41,0.001l200.732,-199.569c13.635,-13.556 13.635,-35.568 -0,-49.124c-13.635,-13.557 -35.775,-13.557 -49.41,-0.001l-200.733,199.569c-13.635,13.556 -13.635,35.568 0.001,49.124Z" style="fill:#00daff;"/><path d="M1475.72,1838.24c-0,19.171 15.564,34.736 34.736,34.736l284.282,0c19.171,0 34.736,-15.565 34.736,-34.736c0,-19.172 -15.565,-34.736 -34.736,-34.736l-284.282,-0c-19.172,-0 -34.736,15.564 -34.736,34.736Z" style="fill:#00daff;"/></g><g id="snow3" serif:id="snow"><path d="M2274.9,1962.58c13.635,-13.556 13.635,-35.568 -0,-49.124l-200.732,-199.569c-13.635,-13.556 -35.775,-13.556 -49.411,0.001c-13.635,13.556 -13.635,35.568 -0,49.124l200.732,199.569c13.635,13.556 35.775,13.555 49.411,-0.001Z" style="fill:#00daff;"/><path d="M2149.83,2014.09c19.284,0 34.939,-15.655 34.939,-34.939l0,-281.827c0,-19.283 -15.655,-34.938 -34.939,-34.938c-19.283,-0 -34.938,15.655 -34.938,34.938l-0,281.827c-0,19.284 15.655,34.939 34.938,34.939Z" style="fill:#00daff;"/><path d="M2024.76,1962.58c13.636,13.556 35.776,13.557 49.411,0.001l200.732,-199.569c13.635,-13.556 13.635,-35.568 -0,-49.124c-13.636,-13.557 -35.776,-13.557 -49.411,-0.001l-200.732,199.569c-13.635,13.556 -13.635,35.568 0,49.124Z" style="fill:#00daff;"/><path d="M1972.95,1838.24c0,19.171 15.565,34.736 34.736,34.736l284.282,0c19.172,0 34.737,-15.565 34.737,-34.736c-0,-19.172 -15.565,-34.736 -34.737,-34.736l-284.282,-0c-19.171,-0 -34.736,15.564 -34.736,34.736Z" style="fill:#00daff;"/></g></g></g></g></svg>