<?xml version="1.0" encoding="UTF-8" standalone="no"?><!DOCTYPE svg PUBLIC "-//W3C//DTD SVG 1.1//EN" "http://www.w3.org/Graphics/SVG/1.1/DTD/svg11.dtd"><svg width="100%" height="100%" viewBox="0 0 2500 2500" version="1.1" xmlns="http://www.w3.org/2000/svg" xmlns:xlink="http://www.w3.org/1999/xlink" xml:space="preserve" xmlns:serif="http://www.serif.com/" style="fill-rule:evenodd;clip-rule:evenodd;stroke-linecap:round;stroke-linejoin:round;stroke-miterlimit:1.5;"><rect x="0" y="0" width="2500" height="2500" style="fill:none;"/><g><g id="heavysleetshower"><ellipse id="clearsky" cx="938.177" cy="1007.69" rx="788.264" ry="783.696" style="fill:#ffd600;"/><clipPath id="_clip1"><ellipse cx="938.177" cy="1007.69" rx="788.264" ry="783.696"/></clipPath><g clip-path="url(#_clip1)"><ellipse cx="938.177" cy="1007.69" rx="632.399" ry="628.734" style="fill:#ffa500;"/></g><g id="heavysleet"><path id="cloudy" d="M922.792,1241.27c17.42,-245.575 223.613,-439.723 475.056,-439.723c206.969,-0 383.28,131.542 448.895,315.064c51.003,-27.37 109.377,-42.913 171.375,-42.913c199.604,0 361.657,161.115 361.657,359.562c0,198.448 -164.824,367.988 -364.428,367.988l-1178.91,-0c-157.247,-0 -284.911,-133.65 -284.911,-289.985c0,-156.335 127.664,-283.259 284.911,-283.259c30.097,-0 59.11,4.65 86.354,13.266Z" style="fill:#808080;stroke:#cdcdcd;stroke-width:145.83px;"/><g id="snow"><path d="M1322.53,2226c11.26,-11.194 11.26,-29.37 0,-40.564l-165.755,-164.796c-11.259,-11.194 -29.542,-11.193 -40.801,0.001c-11.259,11.194 -11.26,29.37 -0,40.564l165.755,164.795c11.259,11.194 29.542,11.194 40.801,-0Z" style="fill:#00daff;"/><path d="M1219.25,2268.53c15.923,0 28.851,-12.927 28.851,-28.851l-0,-232.72c-0,-15.923 -12.928,-28.85 -28.851,-28.85c-15.923,-0 -28.851,12.927 -28.851,28.85l0,232.72c0,15.924 12.928,28.851 28.851,28.851Z" style="fill:#00daff;"/><path d="M1115.97,2226c11.259,11.194 29.542,11.194 40.801,0l165.755,-164.795c11.26,-11.194 11.26,-29.37 0,-40.564c-11.259,-11.194 -29.542,-11.195 -40.801,-0.001l-165.755,164.796c-11.26,11.194 -11.259,29.37 -0,40.564Z" style="fill:#00daff;"/><path d="M1073.19,2123.32c-0,15.831 12.852,28.684 28.683,28.684l234.748,0c15.831,0 28.683,-12.853 28.683,-28.684c0,-15.831 -12.852,-28.683 -28.683,-28.683l-234.748,-0c-15.831,-0 -28.683,12.852 -28.683,28.683Z" style="fill:#00daff;"/></g><g id="snow1" serif:id="snow"><path d="M2238.35,2232.71c11.259,-11.194 11.259,-29.37 0,-40.564l-165.755,-164.795c-11.26,-11.194 -29.542,-11.194 -40.801,0c-11.26,11.194 -11.26,29.371 -0.001,40.565l165.756,164.795c11.259,11.194 29.541,11.194 40.801,-0.001Z" style="fill:#00daff;"/><path d="M2135.07,2275.24c15.923,-0 28.851,-12.928 28.851,-28.851l-0,-232.72c-0,-15.923 -12.928,-28.851 -28.851,-28.851c-15.923,-0 -28.851,12.928 -28.851,28.851l-0,232.72c-0,15.923 12.928,28.851 28.851,28.851Z" style="fill:#00daff;"/><path d="M2031.79,2232.71c11.259,11.195 29.541,11.195 40.801,0.001l165.755,-164.795c11.259,-11.194 11.259,-29.371 -0,-40.565c-11.26,-11.194 -29.542,-11.194 -40.801,-0l-165.756,164.795c-11.259,11.194 -11.259,29.37 0.001,40.564Z" style="fill:#00daff;"/><path d="M1989.01,2130.03c0,15.831 12.853,28.683 28.684,28.683l234.747,0c15.831,0 28.684,-12.852 28.684,-28.683c0,-15.831 -12.853,-28.684 -28.684,-28.684l-234.747,0c-15.831,0 -28.684,12.853 -28.684,28.684Z" style="fill:#00daff;"/></g><path d="M866.722,1978.5c-31.304,-17.969 -71.436,-7.216 -89.562,23.997l-87.868,151.31c-18.126,31.213 -7.427,71.143 23.878,89.112c31.305,17.969 71.436,7.216 89.562,-23.997l87.868,-151.31c18.126,-31.213 7.427,-71.143 -23.878,-89.112Z" style="fill:#4a89c5;"/><path d="M1789.15,1978.5c-31.305,-17.969 -71.436,-7.216 -89.562,23.997l-87.868,151.31c-18.126,31.213 -7.427,71.143 23.878,89.112c31.304,17.969 71.436,7.216 89.562,-23.997l87.868,-151.31c18.126,-31.213 7.426,-71.143 -23.878,-89.112Z" style="fill:#4a89c5;"/></g></g></g></svg>