<?xml version="1.0" encoding="UTF-8" standalone="no"?><!DOCTYPE svg PUBLIC "-//W3C//DTD SVG 1.1//EN" "http://www.w3.org/Graphics/SVG/1.1/DTD/svg11.dtd"><svg width="100%" height="100%" viewBox="0 0 2500 2500" version="1.1" xmlns="http://www.w3.org/2000/svg" xmlns:xlink="http://www.w3.org/1999/xlink" xml:space="preserve" xmlns:serif="http://www.serif.com/" style="fill-rule:evenodd;clip-rule:evenodd;stroke-linecap:round;stroke-linejoin:round;stroke-miterlimit:1.5;"><rect x="0" y="0" width="2500" height="2500" style="fill:none;"/><g><g id="heavyrain"><path id="cloudy" d="M656.189,960.07c19.532,-275.339 250.716,-493.019 532.635,-493.019c232.054,0 429.733,147.485 503.301,353.251c57.185,-30.687 122.635,-48.114 192.146,-48.114c223.797,0 405.491,180.642 405.491,403.141c0,222.5 -184.801,412.589 -408.598,412.589l-1321.8,-0c-176.305,-0 -319.442,-149.848 -319.442,-325.131c-0,-175.283 143.137,-317.591 319.442,-317.591c33.745,-0 66.275,5.213 96.82,14.874Z" style="fill:#808080;stroke:#cdcdcd;stroke-width:145.83px;"/><g><path d="M660.458,1725.96c-35.099,-20.147 -80.094,-8.091 -100.417,26.905l-98.518,169.649c-20.323,34.997 -8.327,79.766 26.772,99.913c35.099,20.147 80.094,8.091 100.417,-26.906l98.518,-169.648c20.323,-34.997 8.327,-79.766 -26.772,-99.913Z" style="fill:#4a89c5;"/><path d="M1103.52,1725.96c-35.099,-20.147 -80.095,-8.091 -100.418,26.905l-98.517,169.649c-20.323,34.997 -8.327,79.766 26.772,99.913c35.098,20.147 80.094,8.091 100.417,-26.906l98.517,-169.648c20.323,-34.997 8.327,-79.766 -26.771,-99.913Z" style="fill:#4a89c5;"/><path d="M1512.03,1725.96c-35.099,-20.147 -80.095,-8.091 -100.418,26.905l-98.517,169.649c-20.323,34.997 -8.327,79.766 26.772,99.913c35.098,20.147 80.094,8.091 100.417,-26.906l98.518,-169.648c20.323,-34.997 8.327,-79.766 -26.772,-99.913Z" style="fill:#4a89c5;"/><path d="M1964.06,1725.96c-35.099,-20.147 -80.094,-8.091 -100.417,26.905l-98.518,169.649c-20.323,34.997 -8.327,79.766 26.772,99.913c35.099,20.147 80.094,8.091 100.417,-26.906l98.518,-169.648c20.323,-34.997 8.327,-79.766 -26.772,-99.913Z" style="fill:#4a89c5;"/></g></g></g></svg>