<?xml version="1.0" encoding="UTF-8" standalone="no"?><!DOCTYPE svg PUBLIC "-//W3C//DTD SVG 1.1//EN" "http://www.w3.org/Graphics/SVG/1.1/DTD/svg11.dtd"><svg width="100%" height="100%" viewBox="0 0 2500 2500" version="1.1" xmlns="http://www.w3.org/2000/svg" xmlns:xlink="http://www.w3.org/1999/xlink" xml:space="preserve" xmlns:serif="http://www.serif.com/" style="fill-rule:evenodd;clip-rule:evenodd;stroke-linecap:round;stroke-linejoin:round;stroke-miterlimit:1.5;"><rect x="0" y="0" width="2500" height="2500" style="fill:none;"/><g><g id="heavysnow"><path id="cloudy" d="M633.995,911.298c20.244,-285.378 259.858,-510.996 552.057,-510.996c240.515,0 445.403,152.863 521.653,366.132c59.27,-31.806 127.107,-49.868 199.152,-49.868c231.958,-0 420.277,187.228 420.277,417.841c0,230.613 -191.539,427.633 -423.497,427.633l-1369.99,0c-182.734,0 -331.09,-155.312 -331.09,-336.987c-0,-181.674 148.356,-329.171 331.09,-329.171c34.975,-0 68.691,5.403 100.35,15.416Z" style="fill:#808080;stroke:#cdcdcd;stroke-width:145.83px;"/><g><g id="snow"><path d="M652.31,2049.51c13.085,-13.009 13.085,-34.131 0.001,-47.14l-192.622,-191.506c-13.085,-13.008 -34.33,-13.008 -47.414,0.001c-13.085,13.008 -13.085,34.131 -0.001,47.139l192.622,191.506c13.084,13.008 34.33,13.008 47.414,-0Z" style="fill:#00daff;"/><path d="M532.292,2098.93c18.505,-0 33.528,-15.023 33.528,-33.528l-0,-270.44c-0,-18.504 -15.023,-33.527 -33.528,-33.527c-18.504,-0 -33.527,15.023 -33.527,33.527l0,270.44c0,18.505 15.023,33.528 33.527,33.528Z" style="fill:#00daff;"/><path d="M412.275,2049.51c13.084,13.008 34.329,13.008 47.414,-0l192.622,-191.506c13.084,-13.008 13.084,-34.131 -0.001,-47.139c-13.084,-13.009 -34.33,-13.009 -47.414,-0.001l-192.622,191.506c-13.084,13.009 -13.084,34.131 0.001,47.14Z" style="fill:#00daff;"/><path d="M362.561,1930.18c0,18.397 14.936,33.333 33.333,33.333l272.797,-0c18.397,-0 33.332,-14.936 33.332,-33.333c0,-18.397 -14.935,-33.333 -33.332,-33.333l-272.797,0c-18.397,0 -33.333,14.936 -33.333,33.333Z" style="fill:#00daff;"/></g><g id="snow1" serif:id="snow"><path d="M1142.53,2049.51c13.084,-13.009 13.084,-34.131 0,-47.14l-192.622,-191.506c-13.084,-13.008 -34.33,-13.008 -47.414,0.001c-13.084,13.008 -13.085,34.131 -0,47.139l192.622,191.506c13.084,13.008 34.329,13.008 47.414,-0Z" style="fill:#00daff;"/><path d="M1022.51,2098.93c18.504,-0 33.527,-15.023 33.527,-33.528l0,-270.44c0,-18.504 -15.023,-33.527 -33.527,-33.527c-18.504,-0 -33.527,15.023 -33.527,33.527l-0,270.44c-0,18.505 15.023,33.528 33.527,33.528Z" style="fill:#00daff;"/><path d="M902.49,2049.51c13.084,13.008 34.33,13.008 47.414,-0l192.622,-191.506c13.084,-13.008 13.084,-34.131 -0,-47.139c-13.085,-13.009 -34.33,-13.009 -47.414,-0.001l-192.622,191.506c-13.085,13.009 -13.084,34.131 -0,47.14Z" style="fill:#00daff;"/><path d="M852.777,1930.18c-0,18.397 14.936,33.333 33.333,33.333l272.796,-0c18.397,-0 33.333,-14.936 33.333,-33.333c-0,-18.397 -14.936,-33.333 -33.333,-33.333l-272.796,0c-18.397,0 -33.333,14.936 -33.333,33.333Z" style="fill:#00daff;"/></g><g id="snow2" serif:id="snow"><path d="M1629.47,2049.51c13.085,-13.009 13.085,-34.131 0.001,-47.14l-192.623,-191.506c-13.084,-13.008 -34.329,-13.008 -47.414,0.001c-13.084,13.008 -13.084,34.131 -0,47.139l192.622,191.506c13.084,13.008 34.33,13.008 47.414,-0Z" style="fill:#00daff;"/><path d="M1509.45,2098.93c18.504,-0 33.527,-15.023 33.527,-33.528l0,-270.44c0,-18.504 -15.023,-33.527 -33.527,-33.527c-18.504,-0 -33.527,15.023 -33.527,33.527l0,270.44c0,18.505 15.023,33.528 33.527,33.528Z" style="fill:#00daff;"/><path d="M1389.44,2049.51c13.085,13.008 34.33,13.008 47.414,-0l192.623,-191.506c13.084,-13.008 13.084,-34.131 -0.001,-47.139c-13.084,-13.009 -34.33,-13.009 -47.414,-0.001l-192.622,191.506c-13.084,13.009 -13.084,34.131 0,47.14Z" style="fill:#00daff;"/><path d="M1339.72,1930.18c0,18.397 14.936,33.333 33.333,33.333l272.796,-0c18.397,-0 33.333,-14.936 33.333,-33.333c0,-18.397 -14.936,-33.333 -33.333,-33.333l-272.796,0c-18.397,0 -33.333,14.936 -33.333,33.333Z" style="fill:#00daff;"/></g><g id="snow3" serif:id="snow"><path d="M2119.69,2049.51c13.084,-13.009 13.084,-34.131 0,-47.14l-192.622,-191.506c-13.084,-13.008 -34.33,-13.008 -47.414,0.001c-13.085,13.008 -13.085,34.131 -0.001,47.139l192.623,191.506c13.084,13.008 34.329,13.008 47.414,-0Z" style="fill:#00daff;"/><path d="M1999.67,2098.93c18.504,-0 33.527,-15.023 33.527,-33.528l-0,-270.44c-0,-18.504 -15.023,-33.527 -33.527,-33.527c-18.504,-0 -33.527,15.023 -33.527,33.527l-0,270.44c-0,18.505 15.023,33.528 33.527,33.528Z" style="fill:#00daff;"/><path d="M1879.65,2049.51c13.084,13.008 34.33,13.008 47.414,-0l192.622,-191.506c13.084,-13.008 13.084,-34.131 -0,-47.139c-13.085,-13.009 -34.33,-13.009 -47.414,-0.001l-192.623,191.506c-13.084,13.009 -13.084,34.131 0.001,47.14Z" style="fill:#00daff;"/><path d="M1829.94,1930.18c-0,18.397 14.936,33.333 33.332,33.333l272.797,-0c18.397,-0 33.333,-14.936 33.333,-33.333c-0,-18.397 -14.936,-33.333 -33.333,-33.333l-272.797,0c-18.396,0 -33.332,14.936 -33.332,33.333Z" style="fill:#00daff;"/></g></g></g></g></svg>