<?xml version="1.0" encoding="UTF-8" standalone="no"?><!DOCTYPE svg PUBLIC "-//W3C//DTD SVG 1.1//EN" "http://www.w3.org/Graphics/SVG/1.1/DTD/svg11.dtd"><svg width="100%" height="100%" viewBox="0 0 2500 2500" version="1.1" xmlns="http://www.w3.org/2000/svg" xmlns:xlink="http://www.w3.org/1999/xlink" xml:space="preserve" xmlns:serif="http://www.serif.com/" style="fill-rule:evenodd;clip-rule:evenodd;stroke-linecap:round;stroke-linejoin:round;stroke-miterlimit:1.5;"><rect x="0" y="0" width="2500" height="2500" style="fill:none;"/><g><g id="heavysnowshowers"><ellipse id="clearsky" cx="932.148" cy="1027.3" rx="788.483" ry="783.914" style="fill:#ffd600;"/><clipPath id="_clip1"><ellipse cx="932.148" cy="1027.3" rx="788.483" ry="783.914"/></clipPath><g clip-path="url(#_clip1)"><ellipse cx="932.148" cy="1027.3" rx="632.575" ry="628.909" style="fill:#ffa500;"/></g><g id="heavysleet"><path id="cloudy" d="M928.635,1233.58c17.426,-245.643 223.676,-439.846 475.189,-439.846c207.027,0 383.386,131.579 449.019,315.152c51.018,-27.377 109.409,-42.924 171.423,-42.924c199.66,-0 361.759,161.159 361.759,359.662c-0,198.502 -164.871,368.09 -364.531,368.09l-1179.24,-0c-157.29,-0 -284.99,-133.687 -284.99,-290.065c0,-156.379 127.7,-283.339 284.99,-283.339c30.106,0 59.127,4.651 86.378,13.27Z" style="fill:#808080;stroke:#cdcdcd;stroke-width:145.83px;"/></g><g><g id="snow"><path d="M951.764,2213.3c11.263,-11.198 11.263,-29.379 0,-40.576l-165.801,-164.841c-11.263,-11.197 -29.55,-11.197 -40.813,0c-11.262,11.198 -11.262,29.379 -0,40.576l165.802,164.841c11.262,11.197 29.549,11.197 40.812,-0Z" style="fill:#00daff;"/><path d="M848.457,2255.84c15.928,-0 28.859,-12.931 28.859,-28.859l0,-232.785c0,-15.928 -12.931,-28.859 -28.859,-28.859c-15.927,0 -28.859,12.931 -28.859,28.859l0,232.785c0,15.928 12.932,28.859 28.859,28.859Z" style="fill:#00daff;"/><path d="M745.15,2213.3c11.263,11.197 29.55,11.197 40.813,-0l165.801,-164.841c11.263,-11.197 11.263,-29.378 0,-40.576c-11.263,-11.197 -29.55,-11.197 -40.812,-0l-165.802,164.841c-11.262,11.197 -11.262,29.378 0,40.576Z" style="fill:#00daff;"/><path d="M702.359,2110.59c0,15.836 12.856,28.692 28.692,28.692l234.812,0c15.836,0 28.692,-12.856 28.692,-28.692c0,-15.835 -12.856,-28.691 -28.692,-28.691l-234.812,-0c-15.836,-0 -28.692,12.856 -28.692,28.691Z" style="fill:#00daff;"/></g><g id="snow1" serif:id="snow"><path d="M1373.72,2213.3c11.262,-11.198 11.262,-29.379 0,-40.576l-165.802,-164.841c-11.262,-11.197 -29.55,-11.197 -40.812,0c-11.263,11.198 -11.263,29.379 -0,40.576l165.801,164.841c11.263,11.197 29.55,11.197 40.813,-0Z" style="fill:#00daff;"/><path d="M1270.42,2255.84c15.927,-0 28.859,-12.931 28.859,-28.859l-0,-232.785c-0,-15.928 -12.932,-28.859 -28.859,-28.859c-15.928,0 -28.859,12.931 -28.859,28.859l-0,232.785c-0,15.928 12.931,28.859 28.859,28.859Z" style="fill:#00daff;"/><path d="M1167.11,2213.3c11.262,11.197 29.55,11.197 40.812,-0l165.802,-164.841c11.262,-11.197 11.262,-29.378 -0,-40.576c-11.263,-11.197 -29.55,-11.197 -40.813,-0l-165.801,164.841c-11.263,11.197 -11.263,29.378 -0,40.576Z" style="fill:#00daff;"/><path d="M1124.32,2110.59c-0,15.836 12.856,28.692 28.691,28.692l234.813,0c15.835,0 28.692,-12.856 28.692,-28.692c-0,-15.835 -12.857,-28.691 -28.692,-28.691l-234.813,-0c-15.835,-0 -28.691,12.856 -28.691,28.691Z" style="fill:#00daff;"/></g><g id="snow2" serif:id="snow"><path d="M1792.87,2213.3c11.263,-11.198 11.263,-29.379 0.001,-40.576l-165.802,-164.841c-11.263,-11.197 -29.55,-11.197 -40.812,0c-11.263,11.198 -11.263,29.379 -0.001,40.576l165.802,164.841c11.262,11.197 29.55,11.197 40.812,-0Z" style="fill:#00daff;"/><path d="M1689.56,2255.84c15.928,-0 28.859,-12.931 28.859,-28.859l0,-232.785c0,-15.928 -12.931,-28.859 -28.859,-28.859c-15.927,0 -28.858,12.931 -28.858,28.859l-0,232.785c-0,15.928 12.931,28.859 28.858,28.859Z" style="fill:#00daff;"/><path d="M1586.26,2213.3c11.262,11.197 29.549,11.197 40.812,-0l165.802,-164.841c11.262,-11.197 11.262,-29.378 -0.001,-40.576c-11.262,-11.197 -29.55,-11.197 -40.812,-0l-165.802,164.841c-11.262,11.197 -11.262,29.378 0.001,40.576Z" style="fill:#00daff;"/><path d="M1543.46,2110.59c0,15.836 12.857,28.692 28.692,28.692l234.813,0c15.835,0 28.691,-12.856 28.691,-28.692c0,-15.835 -12.856,-28.691 -28.691,-28.691l-234.813,-0c-15.835,-0 -28.692,12.856 -28.692,28.691Z" style="fill:#00daff;"/></g><g id="snow3" serif:id="snow"><path d="M2214.83,2213.3c11.263,-11.198 11.263,-29.379 0,-40.576l-165.801,-164.841c-11.263,-11.197 -29.55,-11.197 -40.813,0c-11.262,11.198 -11.262,29.379 -0,40.576l165.802,164.841c11.262,11.197 29.549,11.197 40.812,-0Z" style="fill:#00daff;"/><path d="M2111.52,2255.84c15.928,-0 28.859,-12.931 28.859,-28.859l-0,-232.785c-0,-15.928 -12.931,-28.859 -28.859,-28.859c-15.928,0 -28.859,12.931 -28.859,28.859l0,232.785c0,15.928 12.931,28.859 28.859,28.859Z" style="fill:#00daff;"/><path d="M2008.21,2213.3c11.263,11.197 29.55,11.197 40.813,-0l165.801,-164.841c11.263,-11.197 11.263,-29.378 -0,-40.576c-11.263,-11.197 -29.55,-11.197 -40.812,-0l-165.802,164.841c-11.262,11.197 -11.262,29.378 0,40.576Z" style="fill:#00daff;"/><path d="M1965.42,2110.59c0,15.836 12.856,28.692 28.692,28.692l234.812,0c15.836,0 28.692,-12.856 28.692,-28.692c0,-15.835 -12.856,-28.691 -28.692,-28.691l-234.812,-0c-15.836,-0 -28.692,12.856 -28.692,28.691Z" style="fill:#00daff;"/></g></g></g></g></svg>