<?xml version="1.0" encoding="UTF-8" standalone="no"?><!DOCTYPE svg PUBLIC "-//W3C//DTD SVG 1.1//EN" "http://www.w3.org/Graphics/SVG/1.1/DTD/svg11.dtd"><svg width="100%" height="100%" viewBox="0 0 2500 2500" version="1.1" xmlns="http://www.w3.org/2000/svg" xmlns:xlink="http://www.w3.org/1999/xlink" xml:space="preserve" xmlns:serif="http://www.serif.com/" style="fill-rule:evenodd;clip-rule:evenodd;stroke-linecap:round;stroke-linejoin:round;stroke-miterlimit:1.5;"><rect x="0" y="0" width="2500" height="2500" style="fill:none;"/><g><g id="lightrain"><g id="lightrain1" serif:id="lightrain"><path id="cloudy" d="M647.554,920.825c19.809,-279.245 254.273,-500.013 540.191,-500.013c235.346,-0 435.83,149.577 510.442,358.262c57.996,-31.122 124.374,-48.796 194.872,-48.796c226.972,-0 411.244,183.204 411.244,408.861c-0,225.656 -187.423,418.442 -414.395,418.442l-1340.55,-0c-178.806,-0 -323.974,-151.974 -323.974,-329.744c-0,-177.77 145.168,-322.097 323.974,-322.097c34.224,-0 67.215,5.287 98.194,15.085Z" style="fill:#808080;stroke:#cdcdcd;stroke-width:145.83px;"/><g><path d="M938.191,1767.85c-35.596,-20.433 -81.23,-8.206 -101.842,27.287l-99.915,172.055c-20.611,35.494 -8.445,80.898 27.152,101.331c35.596,20.432 81.23,8.205 101.842,-27.288l99.915,-172.055c20.611,-35.493 8.445,-80.898 -27.152,-101.33Z" style="fill:#4a89c5;"/><path d="M1620.84,1767.85c-35.596,-20.433 -81.23,-8.206 -101.842,27.287l-99.915,172.055c-20.611,35.494 -8.445,80.898 27.152,101.331c35.597,20.432 81.23,8.205 101.842,-27.288l99.915,-172.055c20.611,-35.493 8.445,-80.898 -27.152,-101.33Z" style="fill:#4a89c5;"/></g></g></g></g></svg>