<?xml version="1.0" encoding="UTF-8" standalone="no"?><!DOCTYPE svg PUBLIC "-//W3C//DTD SVG 1.1//EN" "http://www.w3.org/Graphics/SVG/1.1/DTD/svg11.dtd"><svg width="100%" height="100%" viewBox="0 0 2500 2500" version="1.1" xmlns="http://www.w3.org/2000/svg" xmlns:xlink="http://www.w3.org/1999/xlink" xml:space="preserve" xmlns:serif="http://www.serif.com/" style="fill-rule:evenodd;clip-rule:evenodd;stroke-linecap:round;stroke-linejoin:round;stroke-miterlimit:1.5;"><rect x="0" y="0" width="2500" height="2500" style="fill:none;"/><g><g id="lightrainshowers"><ellipse id="clearsky" cx="947.777" cy="1052.11" rx="751.441" ry="747.087" style="fill:#fff;"/><clipPath id="_clip1"><ellipse cx="947.777" cy="1052.11" rx="751.441" ry="747.087"/></clipPath><g clip-path="url(#_clip1)"><ellipse id="center" cx="947.777" cy="1052.11" rx="602.858" ry="599.364" style="fill-opacity:0.3;"/></g><g id="heavysleet"><path id="cloudy" d="M944.43,1248.7c16.607,-234.103 213.168,-419.182 452.865,-419.182c197.301,0 365.375,125.397 427.925,300.346c48.621,-26.09 104.269,-40.907 163.37,-40.907c190.28,-0 344.763,153.588 344.763,342.765c-0,189.177 -157.125,350.798 -347.405,350.798l-1123.84,-0c-149.901,-0 -271.602,-127.406 -271.602,-276.439c0,-149.032 121.701,-270.027 271.602,-270.027c28.691,-0 56.349,4.432 82.32,12.646Z" style="fill:#808080;stroke:#cdcdcd;stroke-width:145.83px;"/></g><g><path d="M1211.95,1933.84c-29.843,-17.129 -68.099,-6.879 -85.379,22.876l-83.763,144.242c-17.279,29.755 -7.08,67.82 22.762,84.949c29.843,17.13 68.099,6.879 85.379,-22.876l83.763,-144.241c17.279,-29.756 7.08,-67.82 -22.762,-84.95Z" style="fill:#4a89c5;"/><path d="M1784.24,1933.84c-29.843,-17.129 -68.099,-6.879 -85.379,22.876l-83.763,144.242c-17.279,29.755 -7.08,67.82 22.762,84.949c29.843,17.13 68.099,6.879 85.379,-22.876l83.763,-144.241c17.279,-29.756 7.08,-67.82 -22.762,-84.95Z" style="fill:#4a89c5;"/></g></g></g></svg>