<?xml version="1.0" encoding="UTF-8" standalone="no"?><!DOCTYPE svg PUBLIC "-//W3C//DTD SVG 1.1//EN" "http://www.w3.org/Graphics/SVG/1.1/DTD/svg11.dtd"><svg width="100%" height="100%" viewBox="0 0 2500 2500" version="1.1" xmlns="http://www.w3.org/2000/svg" xmlns:xlink="http://www.w3.org/1999/xlink" xml:space="preserve" xmlns:serif="http://www.serif.com/" style="fill-rule:evenodd;clip-rule:evenodd;stroke-linecap:round;stroke-linejoin:round;stroke-miterlimit:1.5;"><rect x="0" y="0" width="2500" height="2500" style="fill:none;"/><g><g id="lightrainandthunder"><g id="lightning"><path d="M1409.87,1694.54l-159.036,-69.837l65.144,-354.719l-244.58,449.218l164.135,69.607l-106.41,403.121l280.747,-497.39Z" style="fill:#ffdd15;fill-rule:nonzero;"/></g><path id="cloudy" d="M622.833,827.344c20.602,-290.428 264.456,-520.037 561.825,-520.037c244.771,-0 453.284,155.568 530.883,372.61c60.319,-32.369 129.356,-50.751 202.676,-50.751c236.062,0 427.714,190.542 427.714,425.235c-0,234.693 -194.929,435.2 -430.991,435.2l-1394.23,-0c-185.967,-0 -336.949,-158.06 -336.949,-342.95c0,-184.889 150.982,-334.996 336.949,-334.996c35.594,0 69.906,5.499 102.126,15.689Z" style="fill:#808080;stroke:#cdcdcd;stroke-width:145.83px;"/><g><path d="M775.548,1679.21c-37.022,-21.251 -84.484,-8.534 -105.92,28.38l-103.917,178.946c-21.437,36.914 -8.783,84.137 28.239,105.388c37.022,21.251 84.484,8.535 105.92,-28.38l103.917,-178.946c21.437,-36.914 8.783,-84.137 -28.239,-105.388Z" style="fill:#4a89c5;"/><path d="M1790,1679.21c-37.022,-21.251 -84.483,-8.534 -105.92,28.38l-103.917,178.946c-21.437,36.914 -8.783,84.137 28.239,105.388c37.022,21.251 84.484,8.535 105.921,-28.38l103.916,-178.946c21.437,-36.914 8.784,-84.137 -28.239,-105.388Z" style="fill:#4a89c5;"/></g></g></g></svg>