<?xml version="1.0" encoding="UTF-8" standalone="no"?><!DOCTYPE svg PUBLIC "-//W3C//DTD SVG 1.1//EN" "http://www.w3.org/Graphics/SVG/1.1/DTD/svg11.dtd"><svg width="100%" height="100%" viewBox="0 0 2500 2500" version="1.1" xmlns="http://www.w3.org/2000/svg" xmlns:xlink="http://www.w3.org/1999/xlink" xml:space="preserve" xmlns:serif="http://www.serif.com/" style="fill-rule:evenodd;clip-rule:evenodd;stroke-linecap:round;stroke-linejoin:round;stroke-miterlimit:1.5;"><rect x="0" y="0" width="2500" height="2500" style="fill:none;"/><g><g id="lightsleetshowersandthunder"><ellipse id="clearsky" cx="972.856" cy="976.633" rx="749.484" ry="745.141" style="fill:#fff;"/><clipPath id="_clip1"><ellipse cx="972.856" cy="976.633" rx="749.484" ry="745.141"/></clipPath><g clip-path="url(#_clip1)"><ellipse id="center" cx="972.856" cy="976.633" rx="601.288" ry="597.803" style="fill-opacity:0.3;"/></g><g id="heavysnowandthunder"><g id="lightning"><path d="M1551.71,1867.86l-127.859,-56.147l52.374,-285.181l-196.634,361.155l131.959,55.961l-85.55,324.094l225.71,-399.882Z" style="fill:#ffdd15;fill-rule:nonzero;"/></g><path id="cloudy" d="M921.011,1177.28c16.564,-233.494 212.613,-418.091 451.686,-418.091c196.787,0 364.424,125.071 426.811,299.564c48.494,-26.023 103.997,-40.801 162.944,-40.801c189.784,-0 343.865,153.188 343.865,341.873c0,188.685 -156.715,349.884 -346.5,349.884l-1120.91,-0c-149.511,-0 -270.895,-127.074 -270.895,-275.718c0,-148.645 121.384,-269.325 270.895,-269.325c28.616,0 56.202,4.421 82.105,12.614Z" style="fill:#808080;stroke:#cdcdcd;stroke-width:145.83px;"/></g><g><g id="snow"><path d="M1089.45,2079.25c10.706,-10.644 10.706,-27.926 0.001,-38.569l-157.601,-156.688c-10.706,-10.643 -28.089,-10.643 -38.794,0.001c-10.706,10.643 -10.706,27.925 -0,38.568l157.601,156.688c10.705,10.644 28.088,10.643 38.793,-0Z" style="fill:#00daff;"/><path d="M991.255,2119.68c15.14,-0 27.432,-12.292 27.432,-27.432l-0,-221.271c-0,-15.14 -12.292,-27.431 -27.432,-27.431c-15.14,-0 -27.431,12.291 -27.431,27.431l-0,221.271c-0,15.14 12.291,27.432 27.431,27.432Z" style="fill:#00daff;"/><path d="M893.058,2079.25c10.705,10.643 28.088,10.644 38.794,0l157.601,-156.688c10.705,-10.643 10.705,-27.925 -0.001,-38.568c-10.705,-10.644 -28.088,-10.644 -38.793,-0.001l-157.601,156.688c-10.706,10.643 -10.706,27.925 -0,38.569Z" style="fill:#00daff;"/><path d="M852.383,1981.62c0,15.052 12.221,27.272 27.273,27.272l223.198,0c15.053,0 27.273,-12.22 27.273,-27.272c0,-15.052 -12.22,-27.273 -27.273,-27.273l-223.198,0c-15.052,0 -27.273,12.221 -27.273,27.273Z" style="fill:#00daff;"/></g><path d="M1918.89,1865.67c-29.764,-17.085 -67.922,-6.861 -85.156,22.816l-83.545,143.866c-17.234,29.678 -7.061,67.644 22.703,84.729c29.765,17.085 67.922,6.861 85.156,-22.817l83.545,-143.866c17.235,-29.678 7.062,-67.643 -22.703,-84.728Z" style="fill:#4a89c5;"/></g></g></g></svg>