<?xml version="1.0" encoding="UTF-8" standalone="no"?><!DOCTYPE svg PUBLIC "-//W3C//DTD SVG 1.1//EN" "http://www.w3.org/Graphics/SVG/1.1/DTD/svg11.dtd"><svg width="100%" height="100%" viewBox="0 0 2500 2500" version="1.1" xmlns="http://www.w3.org/2000/svg" xmlns:xlink="http://www.w3.org/1999/xlink" xml:space="preserve" xmlns:serif="http://www.serif.com/" style="fill-rule:evenodd;clip-rule:evenodd;stroke-linecap:round;stroke-linejoin:round;stroke-miterlimit:1.5;"><rect x="0" y="0" width="2500" height="2500" style="fill:none;"/><g><g id="lightrainshowersandthunder"><ellipse id="clearsky" cx="986.587" cy="954.009" rx="714.238" ry="710.099" style="fill:#fff;"/><clipPath id="_clip1"><ellipse cx="986.587" cy="954.009" rx="714.238" ry="710.099"/></clipPath><g clip-path="url(#_clip1)"><ellipse id="center" cx="986.587" cy="954.009" rx="573.011" ry="569.69" style="fill-opacity:0.3;"/></g><g id="heavysnowandthunder"><g id="lightning"><path d="M1536.21,1874.24l-121.845,-53.506l49.91,-271.769l-187.386,344.17l125.753,53.33l-81.526,308.853l215.094,-381.078Z" style="fill:#ffdd15;fill-rule:nonzero;"/></g><path id="cloudy" d="M937.181,1145.22c15.784,-222.512 202.614,-398.429 430.444,-398.429c187.533,0 347.286,119.189 406.739,285.477c46.214,-24.799 99.106,-38.883 155.281,-38.883c180.86,0 327.695,145.984 327.695,325.796c-0,179.811 -149.346,333.43 -330.206,333.43l-1068.2,-0c-142.479,-0 -258.154,-121.098 -258.154,-262.752c-0,-141.654 115.675,-256.659 258.154,-256.659c27.271,0 53.56,4.213 78.245,12.02Z" style="fill:#808080;stroke:#cdcdcd;stroke-width:145.83px;"/></g><g><path d="M1061.39,1784.66c-28.364,-16.281 -64.727,-6.538 -81.151,21.744l-79.616,137.1c-16.424,28.282 -6.73,64.462 21.635,80.744c28.365,16.281 64.728,6.538 81.152,-21.744l79.616,-137.1c16.424,-28.282 6.729,-64.462 -21.636,-80.744Z" style="fill:#4a89c5;"/><path d="M1838.61,1784.66c-28.365,-16.281 -64.727,-6.538 -81.151,21.744l-79.616,137.1c-16.424,28.282 -6.73,64.462 21.635,80.744c28.365,16.281 64.728,6.538 81.151,-21.744l79.617,-137.1c16.424,-28.282 6.729,-64.462 -21.636,-80.744Z" style="fill:#4a89c5;"/></g></g></g></svg>