<?xml version="1.0" encoding="UTF-8" standalone="no"?><!DOCTYPE svg PUBLIC "-//W3C//DTD SVG 1.1//EN" "http://www.w3.org/Graphics/SVG/1.1/DTD/svg11.dtd">
<svg width="100%" height="100%" viewBox="0 0 2500 2500" version="1.1" xmlns="http://www.w3.org/2000/svg" xmlns:xlink="http://www.w3.org/1999/xlink" xml:space="preserve" xmlns:serif="http://www.serif.com/" style="fill-rule:evenodd;clip-rule:evenodd;stroke-linecap:round;stroke-linejoin:round;stroke-miterlimit:1.5;"><rect x="0" y="0" width="2500" height="2500" style="fill:none;"/><g id="partlycloudy"><ellipse id="clearsky" cx="940.382" cy="1237.01" rx="819.989" ry="815.237" style="fill:#ffd600;"/><clipPath id="_clip1"><ellipse cx="940.382" cy="1237.01" rx="819.989" ry="815.237"/></clipPath><g clip-path="url(#_clip1)"><ellipse cx="940.382" cy="1237.01" rx="657.851" ry="654.039" style="fill:#ffa500;"/></g><path id="cloudy" d="M931.566,1509.5c17.668,-249.072 226.797,-445.985 481.821,-445.985c209.916,-0 388.737,133.415 455.286,319.55c51.73,-27.759 110.936,-43.523 173.815,-43.523c202.447,-0 366.808,163.408 366.808,364.682c0,201.273 -167.171,373.227 -369.618,373.227l-1195.7,0c-159.486,0 -288.968,-135.552 -288.968,-294.113c0,-158.562 129.482,-287.293 288.968,-287.293c30.525,-0 59.952,4.716 87.584,13.455Z" style="fill:#fff;stroke:#cdcdcd;stroke-width:145.83px;"/></g></svg>