<?xml version="1.0" encoding="UTF-8" standalone="no"?><!DOCTYPE svg PUBLIC "-//W3C//DTD SVG 1.1//EN" "http://www.w3.org/Graphics/SVG/1.1/DTD/svg11.dtd"><svg width="100%" height="100%" viewBox="0 0 2500 2500" version="1.1" xmlns="http://www.w3.org/2000/svg" xmlns:xlink="http://www.w3.org/1999/xlink" xml:space="preserve" xmlns:serif="http://www.serif.com/" style="fill-rule:evenodd;clip-rule:evenodd;stroke-linecap:round;stroke-linejoin:round;stroke-miterlimit:1.5;"><rect x="0" y="0" width="2500" height="2500" style="fill:none;"/><g><g id="rainshower"><ellipse id="clearsky" cx="915.957" cy="1047.94" rx="797.474" ry="792.853" style="fill:#ffd600;"/><clipPath id="_clip1"><ellipse cx="915.957" cy="1047.94" rx="797.474" ry="792.853"/></clipPath><g clip-path="url(#_clip1)"><ellipse cx="915.957" cy="1047.94" rx="639.789" ry="636.081" style="fill:#ffa500;"/></g><g id="heavyrain"><path id="cloudy" d="M937.198,1276.75c17.624,-248.444 226.227,-444.861 480.608,-444.861c209.387,0 387.758,133.079 454.139,318.746c51.6,-27.69 110.656,-43.414 173.378,-43.414c201.937,-0 365.884,162.997 365.884,363.763c-0,200.766 -166.751,372.287 -368.687,372.287l-1192.68,0c-159.083,0 -288.239,-135.21 -288.239,-293.372c-0,-158.162 129.156,-286.57 288.239,-286.57c30.449,0 59.801,4.704 87.363,13.421Z" style="fill:#808080;stroke:#cdcdcd;stroke-width:145.83px;"/></g><g><path d="M1158.86,1967.83c-31.671,-18.179 -72.271,-7.301 -90.609,24.277l-88.895,153.078c-18.337,31.578 -7.513,71.975 24.157,90.154c31.671,18.179 72.271,7.3 90.609,-24.278l88.895,-153.078c18.337,-31.578 7.513,-71.974 -24.157,-90.153Z" style="fill:#4a89c5;"/><path d="M1555.25,1967.83c-31.67,-18.179 -72.271,-7.301 -90.609,24.277l-88.894,153.078c-18.338,31.578 -7.514,71.975 24.157,90.154c31.67,18.179 72.27,7.3 90.608,-24.278l88.895,-153.078c18.338,-31.578 7.514,-71.974 -24.157,-90.153Z" style="fill:#4a89c5;"/><path d="M1963.13,1967.83c-31.671,-18.179 -72.271,-7.301 -90.609,24.277l-88.895,153.078c-18.338,31.578 -7.513,71.975 24.157,90.154c31.671,18.179 72.271,7.3 90.609,-24.278l88.894,-153.078c18.338,-31.578 7.514,-71.974 -24.156,-90.153Z" style="fill:#4a89c5;"/></g></g></g></svg>