<?xml version="1.0" encoding="UTF-8" standalone="no"?><!DOCTYPE svg PUBLIC "-//W3C//DTD SVG 1.1//EN" "http://www.w3.org/Graphics/SVG/1.1/DTD/svg11.dtd"><svg width="100%" height="100%" viewBox="0 0 2500 2500" version="1.1" xmlns="http://www.w3.org/2000/svg" xmlns:xlink="http://www.w3.org/1999/xlink" xml:space="preserve" xmlns:serif="http://www.serif.com/" style="fill-rule:evenodd;clip-rule:evenodd;stroke-linecap:round;stroke-linejoin:round;stroke-miterlimit:1.5;"><rect x="0" y="0" width="2500" height="2500" style="fill:none;"/><g><g id="rainshowerandthunder"><ellipse id="clearsky" cx="928.575" cy="967.407" rx="787.249" ry="782.687" style="fill:#ffd600;"/><clipPath id="_clip1"><ellipse cx="928.575" cy="967.407" rx="787.249" ry="782.687"/></clipPath><g clip-path="url(#_clip1)"><ellipse cx="928.575" cy="967.407" rx="631.585" ry="627.925" style="fill:#ffa500;"/></g><g id="heavyrainandthunder"><g id="lightning"><path d="M1609.22,1894.48l-134.301,-58.976l55.012,-299.55l-206.541,379.352l138.608,58.781l-89.861,340.425l237.083,-420.032Z" style="fill:#ffdd15;fill-rule:nonzero;"/></g><g><path id="cloudy" d="M933.255,1169.12c17.398,-245.259 223.325,-439.158 474.445,-439.158c206.703,0 382.786,131.373 448.317,314.659c50.937,-27.334 109.237,-42.857 171.154,-42.857c199.347,-0 361.192,160.907 361.192,359.099c0,198.192 -164.612,367.514 -363.959,367.514l-1177.39,-0c-157.044,-0 -284.544,-133.477 -284.544,-289.611c0,-156.134 127.5,-282.895 284.544,-282.895c30.058,-0 59.034,4.643 86.243,13.249Z" style="fill:#808080;stroke:#cdcdcd;stroke-width:145.83px;"/></g></g><g><path d="M1043.04,1860.78c-31.264,-17.946 -71.344,-7.207 -89.447,23.966l-87.754,151.115c-18.103,31.173 -7.418,71.052 23.847,88.998c31.264,17.946 71.344,7.207 89.446,-23.967l87.755,-151.115c18.103,-31.173 7.418,-71.051 -23.847,-88.997Z" style="fill:#4a89c5;"/><path d="M2056.28,1860.78c-31.264,-17.946 -71.344,-7.207 -89.447,23.966l-87.755,151.115c-18.102,31.173 -7.417,71.052 23.847,88.998c31.265,17.946 71.345,7.207 89.447,-23.967l87.755,-151.115c18.103,-31.173 7.417,-71.051 -23.847,-88.997Z" style="fill:#4a89c5;"/></g></g></g></svg>