<?xml version="1.0" encoding="UTF-8" standalone="no"?><!DOCTYPE svg PUBLIC "-//W3C//DTD SVG 1.1//EN" "http://www.w3.org/Graphics/SVG/1.1/DTD/svg11.dtd"><svg width="100%" height="100%" viewBox="0 0 2500 2500" version="1.1" xmlns="http://www.w3.org/2000/svg" xmlns:xlink="http://www.w3.org/1999/xlink" xml:space="preserve" xmlns:serif="http://www.serif.com/" style="fill-rule:evenodd;clip-rule:evenodd;stroke-linecap:round;stroke-linejoin:round;stroke-miterlimit:1.5;"><rect x="0" y="0" width="2500" height="2500" style="fill:none;"/><g><g id="rain"><path id="cloudy" d="M598.387,932.572c21.386,-301.487 274.525,-539.839 583.217,-539.839c254.092,-0 470.545,161.491 551.099,386.798c62.616,-33.601 134.281,-52.683 210.393,-52.683c245.05,-0 444,197.797 444,441.427c0,243.63 -202.351,451.771 -447.402,451.771l-1447.32,-0c-193.048,-0 -349.779,-164.079 -349.779,-356.008c-0,-191.93 156.731,-347.752 349.779,-347.752c36.949,-0 72.568,5.708 106.015,16.286Z" style="fill:#808080;stroke:#cdcdcd;stroke-width:145.83px;"/><g><path d="M873.298,1771.19c-38.432,-22.061 -87.701,-8.86 -109.954,29.46l-107.874,185.76c-22.253,38.32 -9.117,87.341 29.315,109.401c38.432,22.061 87.7,8.86 109.953,-29.46l107.874,-185.76c22.253,-38.32 9.118,-87.341 -29.314,-109.401Z" style="fill:#4a89c5;"/><path d="M1320.6,1771.19c-38.432,-22.061 -87.7,-8.86 -109.953,29.46l-107.874,185.76c-22.253,38.32 -9.118,87.341 29.314,109.401c38.432,22.061 87.701,8.86 109.954,-29.46l107.873,-185.76c22.254,-38.32 9.118,-87.341 -29.314,-109.401Z" style="fill:#4a89c5;"/><path d="M1815.56,1771.19c-38.432,-22.061 -87.7,-8.86 -109.953,29.46l-107.874,185.76c-22.253,38.32 -9.118,87.341 29.314,109.401c38.432,22.061 87.701,8.86 109.954,-29.46l107.874,-185.76c22.253,-38.32 9.117,-87.341 -29.315,-109.401Z" style="fill:#4a89c5;"/></g></g></g></svg>