<?xml version="1.0" encoding="UTF-8" standalone="no"?><!DOCTYPE svg PUBLIC "-//W3C//DTD SVG 1.1//EN" "http://www.w3.org/Graphics/SVG/1.1/DTD/svg11.dtd"><svg width="100%" height="100%" viewBox="0 0 2500 2500" version="1.1" xmlns="http://www.w3.org/2000/svg" xmlns:xlink="http://www.w3.org/1999/xlink" xml:space="preserve" xmlns:serif="http://www.serif.com/" style="fill-rule:evenodd;clip-rule:evenodd;stroke-linecap:round;stroke-linejoin:round;stroke-miterlimit:1.5;"><rect x="0" y="0" width="2500" height="2500" style="fill:none;"/><g><g id="sleetshowerandthunder"><ellipse id="clearsky" cx="946.955" cy="974.813" rx="771.674" ry="767.202" style="fill:#ffd600;"/><clipPath id="_clip1"><ellipse cx="946.955" cy="974.813" rx="771.674" ry="767.202"/></clipPath><g clip-path="url(#_clip1)"><ellipse cx="946.955" cy="974.813" rx="619.09" ry="615.503" style="fill:#ffa500;"/></g><g id="heavysleetandthunder"><g id="lightning"><path d="M1590.56,1879.9l-131.644,-57.809l53.924,-293.624l-202.455,371.848l135.866,57.618l-88.083,333.69l232.392,-411.723Z" style="fill:#ffdd15;fill-rule:nonzero;"/></g><path id="cloudy" d="M928.088,1167.88c17.053,-240.407 218.907,-430.469 465.059,-430.469c202.613,-0 375.213,128.773 439.447,308.433c49.93,-26.793 107.076,-42.009 167.768,-42.009c195.404,-0 354.047,157.723 354.047,351.994c-0,194.272 -161.356,360.244 -356.759,360.244l-1154.1,-0c-153.937,-0 -278.914,-130.837 -278.914,-283.882c-0,-153.045 124.977,-277.298 278.914,-277.298c29.464,-0 57.866,4.552 84.537,12.987Z" style="fill:#808080;stroke:#cdcdcd;stroke-width:145.83px;"/><g><g id="snow"><path d="M2066.53,2131c11.022,-10.959 11.022,-28.753 -0,-39.711l-162.267,-161.327c-11.023,-10.958 -28.92,-10.958 -39.943,0c-11.022,10.959 -11.022,28.753 0,39.711l162.267,161.327c11.023,10.959 28.92,10.958 39.943,-0Z" style="fill:#00daff;"/><path d="M1965.42,2172.64c15.588,0 28.244,-12.656 28.244,-28.244l-0,-227.822c-0,-15.588 -12.656,-28.244 -28.244,-28.244c-15.588,0 -28.244,12.656 -28.244,28.244l0,227.822c0,15.588 12.656,28.244 28.244,28.244Z" style="fill:#00daff;"/><path d="M1864.32,2131c11.023,10.958 28.92,10.959 39.943,0l162.267,-161.327c11.022,-10.958 11.022,-28.752 -0,-39.711c-11.023,-10.958 -28.92,-10.958 -39.943,0l-162.267,161.327c-11.022,10.958 -11.022,28.752 0,39.711Z" style="fill:#00daff;"/><path d="M1822.44,2030.48c-0,15.498 12.582,28.08 28.08,28.08l229.807,0c15.497,0 28.079,-12.582 28.079,-28.08c0,-15.498 -12.582,-28.08 -28.079,-28.08l-229.807,0c-15.498,0 -28.08,12.582 -28.08,28.08Z" style="fill:#00daff;"/></g></g><g><path d="M1054.1,1901.36c-30.646,-17.591 -69.933,-7.065 -87.678,23.492l-86.018,148.125c-17.745,30.557 -7.271,69.646 23.375,87.237c30.646,17.591 69.933,7.064 87.677,-23.492l86.019,-148.125c17.745,-30.557 7.271,-69.646 -23.375,-87.237Z" style="fill:#4a89c5;"/></g></g></g></g></svg>