<?xml version="1.0" encoding="UTF-8" standalone="no"?><!DOCTYPE svg PUBLIC "-//W3C//DTD SVG 1.1//EN" "http://www.w3.org/Graphics/SVG/1.1/DTD/svg11.dtd"><svg width="100%" height="100%" viewBox="0 0 2500 2500" version="1.1" xmlns="http://www.w3.org/2000/svg" xmlns:xlink="http://www.w3.org/1999/xlink" xml:space="preserve" xmlns:serif="http://www.serif.com/" style="fill-rule:evenodd;clip-rule:evenodd;stroke-linecap:round;stroke-linejoin:round;stroke-miterlimit:1.5;"><rect x="0" y="0" width="2500" height="2500" style="fill:none;"/><g><g id="snowandthunder"><g id="lightning"><path d="M1449.07,1698.17l-160.542,-70.499l65.762,-358.08l-246.899,453.475l165.691,70.267l-107.418,406.941l283.406,-502.104Z" style="fill:#ffdd15;fill-rule:nonzero;"/></g><path id="cloudy" d="M616.749,823.923c20.797,-293.181 266.962,-524.966 567.149,-524.966c247.091,0 457.58,157.042 535.914,376.141c60.891,-32.675 130.582,-51.231 204.597,-51.231c238.299,-0 431.767,192.347 431.767,429.264c0,236.918 -196.776,439.324 -435.075,439.324l-1407.45,0c-187.73,0 -340.142,-159.558 -340.142,-346.199c-0,-186.642 152.412,-338.171 340.142,-338.171c35.931,-0 70.569,5.551 103.094,15.838Z" style="fill:#808080;stroke:#cdcdcd;stroke-width:145.83px;"/><g><g id="snow"><path d="M797.838,1952.48c13.442,-13.364 13.442,-35.064 0,-48.428l-197.888,-196.742c-13.442,-13.364 -35.268,-13.364 -48.711,0.001c-13.442,13.364 -13.442,35.064 0,48.428l197.888,196.741c13.442,13.364 35.269,13.364 48.711,-0Z" style="fill:#00daff;"/><path d="M674.539,2003.26c19.01,-0 34.443,-15.434 34.443,-34.444l0,-277.834c0,-19.01 -15.433,-34.444 -34.443,-34.444c-19.01,0 -34.444,15.434 -34.444,34.444l-0,277.834c-0,19.01 15.434,34.444 34.444,34.444Z" style="fill:#00daff;"/><path d="M551.239,1952.48c13.443,13.364 35.269,13.364 48.711,0l197.888,-196.741c13.442,-13.364 13.442,-35.064 -0,-48.428c-13.442,-13.365 -35.269,-13.365 -48.711,-0.001l-197.888,196.742c-13.442,13.364 -13.442,35.064 0,48.428Z" style="fill:#00daff;"/><path d="M500.167,1829.9c0,18.9 15.345,34.244 34.244,34.244l280.255,0c18.9,0 34.244,-15.344 34.244,-34.244c-0,-18.9 -15.344,-34.244 -34.244,-34.244l-280.255,0c-18.899,0 -34.244,15.344 -34.244,34.244Z" style="fill:#00daff;"/></g><g id="snow1" serif:id="snow"><path d="M1967.82,1952.48c13.442,-13.364 13.442,-35.064 0.001,-48.428l-197.889,-196.742c-13.442,-13.364 -35.268,-13.364 -48.71,0.001c-13.442,13.364 -13.442,35.064 -0,48.428l197.888,196.741c13.442,13.364 35.268,13.364 48.71,-0Z" style="fill:#00daff;"/><path d="M1844.52,2003.26c19.01,-0 34.444,-15.434 34.444,-34.444l-0,-277.834c-0,-19.01 -15.434,-34.444 -34.444,-34.444c-19.01,0 -34.444,15.434 -34.444,34.444l0,277.834c0,19.01 15.434,34.444 34.444,34.444Z" style="fill:#00daff;"/><path d="M1721.22,1952.48c13.442,13.364 35.268,13.364 48.71,0l197.889,-196.741c13.441,-13.364 13.441,-35.064 -0.001,-48.428c-13.442,-13.365 -35.268,-13.365 -48.71,-0.001l-197.888,196.742c-13.442,13.364 -13.442,35.064 -0,48.428Z" style="fill:#00daff;"/><path d="M1670.15,1829.9c-0,18.9 15.344,34.244 34.244,34.244l280.254,0c18.9,0 34.244,-15.344 34.244,-34.244c0,-18.9 -15.344,-34.244 -34.244,-34.244l-280.254,0c-18.9,0 -34.244,15.344 -34.244,34.244Z" style="fill:#00daff;"/></g></g></g></g></svg>