<?xml version="1.0" encoding="UTF-8" standalone="no"?><!DOCTYPE svg PUBLIC "-//W3C//DTD SVG 1.1//EN" "http://www.w3.org/Graphics/SVG/1.1/DTD/svg11.dtd"><svg width="100%" height="100%" viewBox="0 0 2500 2500" version="1.1" xmlns="http://www.w3.org/2000/svg" xmlns:xlink="http://www.w3.org/1999/xlink" xml:space="preserve" xmlns:serif="http://www.serif.com/" style="fill-rule:evenodd;clip-rule:evenodd;stroke-linecap:round;stroke-linejoin:round;stroke-miterlimit:1.5;"><rect x="0" y="0" width="2500" height="2500" style="fill:none;"/><g><g id="snowshowersandthunder"><ellipse id="clearsky" cx="944.705" cy="940.846" rx="821.742" ry="816.98" style="fill:#fff;"/><clipPath id="_clip1"><ellipse cx="944.705" cy="940.846" rx="821.742" ry="816.98"/></clipPath><g clip-path="url(#_clip1)"><ellipse id="center" cx="944.705" cy="940.846" rx="659.258" ry="655.438" style="fill-opacity:0.3;"/></g><g id="heavysnowandthunder"><g id="lightning"><path d="M1618.53,1936.93l-140.185,-61.56l57.423,-312.675l-215.591,395.974l144.681,61.356l-93.798,355.34l247.47,-438.435Z" style="fill:#ffdd15;fill-rule:nonzero;"/></g><path id="cloudy" d="M887.862,1160.84c18.161,-256.004 233.111,-458.399 495.233,-458.399c215.759,0 399.558,137.129 467.96,328.446c53.169,-28.532 114.023,-44.735 178.653,-44.735c208.082,-0 377.018,167.957 377.018,374.833c-0,206.875 -171.825,383.616 -379.907,383.616l-1228.98,0c-163.925,0 -297.011,-139.325 -297.011,-302.3c-0,-162.975 133.086,-295.29 297.011,-295.29c31.375,-0 61.621,4.847 90.021,13.829Z" style="fill:#808080;stroke:#cdcdcd;stroke-width:145.83px;"/></g><g><g id="snow"><path d="M1048.1,2121.2c11.738,-11.67 11.738,-30.618 0.001,-42.287l-172.796,-171.794c-11.737,-11.67 -30.796,-11.67 -42.533,-0c-11.738,11.669 -11.738,30.618 -0.001,42.287l172.796,171.794c11.737,11.67 30.796,11.67 42.533,-0Z" style="fill:#00daff;"/><path d="M940.436,2165.54c16.599,-0 30.076,-13.477 30.076,-30.077l0,-242.604c0,-16.599 -13.477,-30.076 -30.076,-30.076c-16.599,0 -30.076,13.477 -30.076,30.076l-0,242.604c-0,16.6 13.477,30.077 30.076,30.077Z" style="fill:#00daff;"/><path d="M832.772,2121.2c11.737,11.67 30.796,11.67 42.533,0l172.796,-171.794c11.737,-11.669 11.737,-30.618 -0.001,-42.287c-11.737,-11.67 -30.796,-11.67 -42.533,-0l-172.796,171.794c-11.737,11.669 -11.737,30.617 0.001,42.287Z" style="fill:#00daff;"/><path d="M788.175,2014.16c0,16.504 13.399,29.902 29.902,29.902l244.718,0c16.503,0 29.902,-13.398 29.902,-29.902c-0,-16.503 -13.399,-29.901 -29.902,-29.901l-244.718,-0c-16.503,-0 -29.902,13.398 -29.902,29.901Z" style="fill:#00daff;"/></g><g id="snow1" serif:id="snow"><path d="M2068.49,2121.2c11.737,-11.67 11.737,-30.618 0,-42.287l-172.796,-171.794c-11.737,-11.67 -30.796,-11.67 -42.533,-0c-11.738,11.669 -11.738,30.618 -0.001,42.287l172.796,171.794c11.737,11.67 30.796,11.67 42.534,-0Z" style="fill:#00daff;"/><path d="M1960.83,2165.54c16.6,-0 30.076,-13.477 30.076,-30.077l0,-242.604c0,-16.599 -13.476,-30.076 -30.076,-30.076c-16.599,0 -30.076,13.477 -30.076,30.076l0,242.604c0,16.6 13.477,30.077 30.076,30.077Z" style="fill:#00daff;"/><path d="M1853.16,2121.2c11.737,11.67 30.796,11.67 42.533,0l172.796,-171.794c11.737,-11.669 11.737,-30.618 -0,-42.287c-11.738,-11.67 -30.797,-11.67 -42.534,-0l-172.796,171.794c-11.737,11.669 -11.737,30.617 0.001,42.287Z" style="fill:#00daff;"/><path d="M1808.57,2014.16c-0,16.504 13.398,29.902 29.902,29.902l244.717,0c16.503,0 29.902,-13.398 29.902,-29.902c-0,-16.503 -13.399,-29.901 -29.902,-29.901l-244.717,-0c-16.504,-0 -29.902,13.398 -29.902,29.901Z" style="fill:#00daff;"/></g></g></g></g></svg>