<?xml version="1.0" encoding="UTF-8" standalone="no"?><!DOCTYPE svg PUBLIC "-//W3C//DTD SVG 1.1//EN" "http://www.w3.org/Graphics/SVG/1.1/DTD/svg11.dtd"><svg width="100%" height="100%" viewBox="0 0 2500 2500" version="1.1" xmlns="http://www.w3.org/2000/svg" xmlns:xlink="http://www.w3.org/1999/xlink" xml:space="preserve" xmlns:serif="http://www.serif.com/" style="fill-rule:evenodd;clip-rule:evenodd;stroke-linecap:round;stroke-linejoin:round;stroke-miterlimit:1.5;"><rect x="0" y="0" width="2500" height="2500" style="fill:none;"/><g><g id="heavyrainshower"><ellipse id="clearsky" cx="924.299" cy="1052.77" rx="778.406" ry="773.895" style="fill:#fff;"/><clipPath id="_clip1"><ellipse cx="924.299" cy="1052.77" rx="778.406" ry="773.895"/></clipPath><g clip-path="url(#_clip1)"><ellipse id="center" cx="924.299" cy="1052.77" rx="624.491" ry="620.872" style="fill-opacity:0.3;"/></g><g id="heavyrain"><path id="cloudy" d="M945.033,1276.1c17.202,-242.504 220.817,-434.225 469.116,-434.225c204.38,0 378.486,129.897 443.28,311.124c50.366,-27.027 108.01,-42.375 169.232,-42.375c197.108,-0 357.135,159.099 357.135,355.065c-0,195.966 -162.763,363.385 -359.871,363.385l-1164.17,0c-155.28,0 -281.348,-131.977 -281.348,-286.358c0,-154.38 126.068,-279.717 281.348,-279.717c29.72,0 58.371,4.592 85.274,13.101Z" style="fill:#808080;stroke:#cdcdcd;stroke-width:145.83px;"/></g><g><path d="M933.763,1950.65c-30.913,-17.745 -70.542,-7.126 -88.442,23.697l-86.769,149.417c-17.899,30.823 -7.334,70.254 23.579,87.998c30.914,17.744 70.543,7.126 88.443,-23.697l86.769,-149.418c17.899,-30.823 7.333,-70.253 -23.58,-87.997Z" style="fill:#4a89c5;"/><path d="M1351.11,1950.65c-30.913,-17.745 -70.543,-7.126 -88.442,23.697l-86.769,149.417c-17.9,30.823 -7.334,70.254 23.579,87.998c30.913,17.744 70.543,7.126 88.442,-23.697l86.769,-149.418c17.899,-30.823 7.334,-70.253 -23.579,-87.997Z" style="fill:#4a89c5;"/><path d="M1738.03,1950.65c-30.913,-17.745 -70.543,-7.126 -88.442,23.697l-86.769,149.417c-17.9,30.823 -7.334,70.254 23.579,87.998c30.913,17.744 70.543,7.126 88.442,-23.697l86.769,-149.418c17.9,-30.823 7.334,-70.253 -23.579,-87.997Z" style="fill:#4a89c5;"/><path d="M2136.16,1950.65c-30.913,-17.745 -70.543,-7.126 -88.443,23.697l-86.769,149.417c-17.899,30.823 -7.333,70.254 23.58,87.998c30.913,17.744 70.542,7.126 88.442,-23.697l86.769,-149.418c17.899,-30.823 7.334,-70.253 -23.579,-87.997Z" style="fill:#4a89c5;"/></g></g></g></svg>