<?xml version="1.0" encoding="UTF-8" standalone="no"?><!DOCTYPE svg PUBLIC "-//W3C//DTD SVG 1.1//EN" "http://www.w3.org/Graphics/SVG/1.1/DTD/svg11.dtd"><svg width="100%" height="100%" viewBox="0 0 2500 2500" version="1.1" xmlns="http://www.w3.org/2000/svg" xmlns:xlink="http://www.w3.org/1999/xlink" xml:space="preserve" xmlns:serif="http://www.serif.com/" style="fill-rule:evenodd;clip-rule:evenodd;stroke-linecap:round;stroke-linejoin:round;stroke-miterlimit:1.5;"><rect x="0" y="0" width="2500" height="2500" style="fill:none;"/><g><g id="heavysleet"><path id="cloudy" d="M640.308,905.425c20.042,-282.522 257.258,-505.882 546.532,-505.882c238.109,0 440.946,151.333 516.433,362.468c58.678,-31.488 125.835,-49.369 197.16,-49.369c229.636,-0 416.071,185.354 416.071,413.66c0,228.305 -189.623,423.353 -419.259,423.353l-1356.28,0c-180.905,0 -327.777,-153.757 -327.777,-333.614c-0,-179.857 146.872,-325.878 327.777,-325.878c34.625,0 68.004,5.35 99.346,15.262Z" style="fill:#808080;stroke:#cdcdcd;stroke-width:145.83px;"/><g><g><path d="M1144.19,2050.76c12.953,-12.878 12.953,-33.789 0,-46.667l-190.695,-189.59c-12.953,-12.878 -33.986,-12.878 -46.939,0.001c-12.954,12.878 -12.954,33.789 -0.001,46.667l190.695,189.59c12.953,12.878 33.986,12.878 46.94,-0.001Z" style="fill:#00daff;"/><path d="M1025.37,2099.69c18.319,-0 33.191,-14.873 33.191,-33.192l0,-267.734c0,-18.319 -14.872,-33.192 -33.191,-33.192c-18.319,0 -33.192,14.873 -33.192,33.192l0,267.734c0,18.319 14.873,33.192 33.192,33.192Z" style="fill:#00daff;"/><path d="M907.962,2052.16c12.176,12.106 31.947,12.106 44.123,0.001l193.511,-192.39c12.176,-12.105 12.176,-31.762 -0,-43.867l-2.816,-2.8c-12.177,-12.106 -31.948,-12.106 -44.124,-0.001l-193.511,192.39c-12.176,12.105 -12.176,31.762 0.001,43.867l2.816,2.8Z" style="fill:#00daff;"/><path d="M857.338,1932.63c0,18.213 14.787,32.999 32.999,32.999l270.067,0c18.213,0 32.999,-14.786 32.999,-32.999c0,-18.213 -14.786,-32.999 -32.999,-32.999l-270.067,-0c-18.212,-0 -32.999,14.786 -32.999,32.999Z" style="fill:#00daff;"/></g><g><path d="M2110.74,2050.76c12.954,-12.878 12.954,-33.789 0.001,-46.667l-190.695,-189.59c-12.953,-12.878 -33.986,-12.878 -46.94,0.001c-12.953,12.878 -12.953,33.789 -0,46.667l190.695,189.59c12.953,12.878 33.986,12.878 46.939,-0.001Z" style="fill:#00daff;"/><path d="M1991.92,2099.69c18.319,-0 33.192,-14.873 33.192,-33.192l-0,-267.734c-0,-18.319 -14.873,-33.192 -33.192,-33.192c-18.319,0 -33.191,14.873 -33.191,33.192l-0,267.734c-0,18.319 14.872,33.192 33.191,33.192Z" style="fill:#00daff;"/><path d="M1874.52,2052.16c12.176,12.106 31.947,12.106 44.123,0.001l193.511,-192.39c12.176,-12.105 12.176,-31.762 -0.001,-43.867l-2.816,-2.8c-12.176,-12.106 -31.947,-12.106 -44.123,-0.001l-193.511,192.39c-12.176,12.105 -12.176,31.762 0,43.867l2.817,2.8Z" style="fill:#00daff;"/><path d="M1823.89,1932.63c-0,18.213 14.786,32.999 32.999,32.999l270.067,0c18.212,0 32.999,-14.786 32.999,-32.999c-0,-18.213 -14.787,-32.999 -32.999,-32.999l-270.067,-0c-18.213,-0 -32.999,14.786 -32.999,32.999Z" style="fill:#00daff;"/></g><path d="M576.343,1778c-36.014,-20.673 -82.184,-8.302 -103.037,27.608l-101.088,174.075c-20.854,35.909 -8.545,81.847 27.47,102.519c36.015,20.673 82.184,8.302 103.037,-27.607l101.089,-174.075c20.853,-35.91 8.544,-81.848 -27.471,-102.52Z" style="fill:#4a89c5;"/><path d="M1606.38,1778c-36.015,-20.673 -82.184,-8.302 -103.037,27.608l-101.088,174.075c-20.854,35.909 -8.545,81.847 27.47,102.519c36.015,20.673 82.184,8.302 103.037,-27.607l101.088,-174.075c20.854,-35.91 8.545,-81.848 -27.47,-102.52Z" style="fill:#4a89c5;"/></g></g></g></svg>