<?xml version="1.0" encoding="UTF-8" standalone="no"?><!DOCTYPE svg PUBLIC "-//W3C//DTD SVG 1.1//EN" "http://www.w3.org/Graphics/SVG/1.1/DTD/svg11.dtd"><svg width="100%" height="100%" viewBox="0 0 2500 2500" version="1.1" xmlns="http://www.w3.org/2000/svg" xmlns:xlink="http://www.w3.org/1999/xlink" xml:space="preserve" xmlns:serif="http://www.serif.com/" style="fill-rule:evenodd;clip-rule:evenodd;stroke-linecap:round;stroke-linejoin:round;stroke-miterlimit:1.5;"><rect x="0" y="0" width="2500" height="2500" style="fill:none;"/><g><g id="heavyrainshowerandthunder"><g id="heavyrainandthunder"><g id="lightning"><path d="M1585.74,1850.52l-125.146,-54.955l51.262,-279.131l-192.462,353.493l129.159,54.774l-83.734,317.218l220.921,-391.399Z" style="fill:#ffdd15;fill-rule:nonzero;"/></g><ellipse id="clearsky" cx="951.498" cy="986.645" rx="733.584" ry="729.333" style="fill:#ffd600;"/><clipPath id="_clip1"><ellipse cx="951.498" cy="986.645" rx="733.584" ry="729.333"/></clipPath><g clip-path="url(#_clip1)"><ellipse cx="951.498" cy="986.645" rx="588.531" ry="585.121" style="fill:#ffa500;"/></g><g><path id="cloudy" d="M955.859,1174.61c16.212,-228.54 208.102,-409.221 442.103,-409.221c192.612,0 356.692,122.418 417.755,293.209c47.466,-25.471 101.791,-39.936 159.488,-39.936c185.758,0 336.57,149.938 336.57,334.62c-0,184.682 -153.391,342.461 -339.149,342.461l-1097.13,0c-146.339,0 -265.147,-124.378 -265.147,-269.868c-0,-145.491 118.808,-263.611 265.147,-263.611c28.009,0 55.01,4.327 80.364,12.346Z" style="fill:#808080;stroke:#cdcdcd;stroke-width:145.83px;"/></g><g><path d="M845.448,1819.11c-29.133,-16.722 -66.481,-6.715 -83.349,22.333l-81.773,140.813c-16.869,29.049 -6.912,66.209 22.221,82.931c29.133,16.723 66.481,6.716 83.35,-22.332l81.772,-140.814c16.869,-29.048 6.912,-66.208 -22.221,-82.931Z" style="fill:#4a89c5;"/><path d="M1178.46,1819.11c-29.134,-16.722 -66.481,-6.715 -83.35,22.333l-81.773,140.813c-16.868,29.049 -6.911,66.209 22.222,82.931c29.133,16.723 66.481,6.716 83.349,-22.332l81.773,-140.814c16.869,-29.048 6.912,-66.208 -22.221,-82.931Z" style="fill:#4a89c5;"/><path d="M1837.76,1819.11c-29.134,-16.722 -66.481,-6.715 -83.35,22.333l-81.773,140.813c-16.868,29.049 -6.911,66.209 22.222,82.931c29.133,16.723 66.481,6.716 83.349,-22.332l81.773,-140.814c16.869,-29.048 6.912,-66.208 -22.221,-82.931Z" style="fill:#4a89c5;"/><path d="M2156.26,1819.11c-29.133,-16.722 -66.481,-6.715 -83.349,22.333l-81.773,140.813c-16.869,29.049 -6.912,66.209 22.221,82.931c29.134,16.723 66.481,6.716 83.35,-22.332l81.773,-140.814c16.868,-29.048 6.911,-66.208 -22.222,-82.931Z" style="fill:#4a89c5;"/></g></g></g></g></svg>