<?xml version="1.0" encoding="UTF-8" standalone="no"?><!DOCTYPE svg PUBLIC "-//W3C//DTD SVG 1.1//EN" "http://www.w3.org/Graphics/SVG/1.1/DTD/svg11.dtd"><svg width="100%" height="100%" viewBox="0 0 2500 2500" version="1.1" xmlns="http://www.w3.org/2000/svg" xmlns:xlink="http://www.w3.org/1999/xlink" xml:space="preserve" xmlns:serif="http://www.serif.com/" style="fill-rule:evenodd;clip-rule:evenodd;stroke-linecap:round;stroke-linejoin:round;stroke-miterlimit:1.5;"><rect x="0" y="0" width="2500" height="2500" style="fill:none;"/><g><g id="heavysnowshowersandthunder"><ellipse id="clearsky" cx="963.413" cy="958.889" rx="773.723" ry="769.24" style="fill:#ffd600;"/><clipPath id="_clip1"><ellipse cx="963.413" cy="958.889" rx="773.723" ry="769.24"/></clipPath><g clip-path="url(#_clip1)"><ellipse cx="963.413" cy="958.889" rx="620.734" ry="617.137" style="fill:#ffa500;"/></g><g id="heavysnowandthunder"><g id="lightning"><path d="M1597.86,1896.77l-131.994,-57.962l54.067,-294.404l-202.993,372.835l136.227,57.771l-88.317,334.576l233.01,-412.816Z" style="fill:#ffdd15;fill-rule:nonzero;"/></g><path id="cloudy" d="M909.891,1166.02c17.099,-241.045 219.489,-431.612 466.294,-431.612c203.151,0 376.21,129.116 440.614,309.252c50.063,-26.864 107.361,-42.121 168.214,-42.121c195.922,0 354.987,158.143 354.987,352.93c-0,194.787 -161.784,361.2 -357.707,361.2l-1157.16,-0c-154.346,-0 -279.655,-131.184 -279.655,-284.636c0,-153.451 125.309,-278.034 279.655,-278.034c29.542,-0 58.02,4.564 84.761,13.021Z" style="fill:#808080;stroke:#cdcdcd;stroke-width:145.83px;"/></g><g><g id="snow"><path d="M799.798,2070.27c11.052,-10.988 11.052,-28.829 0.001,-39.817l-162.698,-161.755c-11.052,-10.987 -28.997,-10.987 -40.049,0c-11.051,10.988 -11.052,28.829 -0,39.817l162.698,161.755c11.052,10.987 28.997,10.987 40.048,-0Z" style="fill:#00daff;"/><path d="M698.425,2112.01c15.63,0 28.319,-12.689 28.319,-28.318l-0,-228.428c-0,-15.629 -12.689,-28.318 -28.319,-28.318c-15.629,-0 -28.318,12.689 -28.318,28.318l-0,228.428c-0,15.629 12.689,28.318 28.318,28.318Z" style="fill:#00daff;"/><path d="M597.052,2070.27c11.052,10.987 28.997,10.987 40.049,-0l162.698,-161.755c11.051,-10.988 11.051,-28.829 -0.001,-39.817c-11.051,-10.987 -28.996,-10.987 -40.048,0l-162.698,161.755c-11.052,10.988 -11.051,28.829 0,39.817Z" style="fill:#00daff;"/><path d="M555.062,1969.48c0,15.539 12.616,28.155 28.155,28.155l230.417,-0c15.539,-0 28.154,-12.616 28.154,-28.155c0,-15.539 -12.615,-28.155 -28.154,-28.155l-230.417,0c-15.539,0 -28.155,12.616 -28.155,28.155Z" style="fill:#00daff;"/></g><g id="snow1" serif:id="snow"><path d="M1209,2070.27c11.052,-10.988 11.052,-28.829 0,-39.817l-162.698,-161.755c-11.051,-10.987 -28.996,-10.987 -40.048,0c-11.052,10.988 -11.052,28.829 -0,39.817l162.698,161.755c11.051,10.987 28.996,10.987 40.048,-0Z" style="fill:#00daff;"/><path d="M1107.63,2112.01c15.629,0 28.319,-12.689 28.319,-28.318l-0,-228.428c-0,-15.629 -12.69,-28.318 -28.319,-28.318c-15.63,-0 -28.319,12.689 -28.319,28.318l0,228.428c0,15.629 12.689,28.318 28.319,28.318Z" style="fill:#00daff;"/><path d="M1006.25,2070.27c11.052,10.987 28.997,10.987 40.048,-0l162.698,-161.755c11.052,-10.988 11.052,-28.829 -0,-39.817c-11.052,-10.987 -28.997,-10.987 -40.048,0l-162.698,161.755c-11.052,10.988 -11.052,28.829 -0,39.817Z" style="fill:#00daff;"/><path d="M964.264,1969.48c-0,15.539 12.615,28.155 28.154,28.155l230.418,-0c15.538,-0 28.154,-12.616 28.154,-28.155c0,-15.539 -12.616,-28.155 -28.154,-28.155l-230.418,0c-15.539,0 -28.154,12.616 -28.154,28.155Z" style="fill:#00daff;"/></g><g id="snow2" serif:id="snow"><path d="M1866.75,2070.27c11.052,-10.988 11.052,-28.829 0,-39.817l-162.698,-161.755c-11.051,-10.987 -28.996,-10.987 -40.048,0c-11.052,10.988 -11.052,28.829 -0.001,39.817l162.699,161.755c11.051,10.987 28.996,10.987 40.048,-0Z" style="fill:#00daff;"/><path d="M1765.38,2112.01c15.629,0 28.319,-12.689 28.319,-28.318l-0,-228.428c-0,-15.629 -12.69,-28.318 -28.319,-28.318c-15.63,-0 -28.319,12.689 -28.319,28.318l0,228.428c0,15.629 12.689,28.318 28.319,28.318Z" style="fill:#00daff;"/><path d="M1664,2070.27c11.052,10.987 28.997,10.987 40.048,-0l162.698,-161.755c11.052,-10.988 11.052,-28.829 -0,-39.817c-11.052,-10.987 -28.997,-10.987 -40.048,0l-162.699,161.755c-11.051,10.988 -11.051,28.829 0.001,39.817Z" style="fill:#00daff;"/><path d="M1622.01,1969.48c-0,15.539 12.615,28.155 28.154,28.155l230.417,-0c15.539,-0 28.155,-12.616 28.155,-28.155c0,-15.539 -12.616,-28.155 -28.155,-28.155l-230.417,0c-15.539,0 -28.154,12.616 -28.154,28.155Z" style="fill:#00daff;"/></g><g id="snow3" serif:id="snow"><path d="M2269.77,2070.27c11.052,-10.988 11.052,-28.829 0.001,-39.817l-162.698,-161.755c-11.052,-10.987 -28.997,-10.987 -40.049,0c-11.051,10.988 -11.052,28.829 0,39.817l162.698,161.755c11.052,10.987 28.997,10.987 40.048,-0Z" style="fill:#00daff;"/><path d="M2168.39,2112.01c15.63,0 28.319,-12.689 28.319,-28.318l0,-228.428c0,-15.629 -12.689,-28.318 -28.319,-28.318c-15.629,-0 -28.318,12.689 -28.318,28.318l-0,228.428c-0,15.629 12.689,28.318 28.318,28.318Z" style="fill:#00daff;"/><path d="M2067.02,2070.27c11.052,10.987 28.997,10.987 40.049,-0l162.698,-161.755c11.051,-10.988 11.051,-28.829 -0.001,-39.817c-11.051,-10.987 -28.996,-10.987 -40.048,0l-162.698,161.755c-11.052,10.988 -11.051,28.829 0,39.817Z" style="fill:#00daff;"/><path d="M2025.03,1969.48c0,15.539 12.616,28.155 28.155,28.155l230.417,-0c15.539,-0 28.155,-12.616 28.155,-28.155c-0,-15.539 -12.616,-28.155 -28.155,-28.155l-230.417,0c-15.539,0 -28.155,12.616 -28.155,28.155Z" style="fill:#00daff;"/></g></g></g></g></svg>