<?xml version="1.0" encoding="UTF-8" standalone="no"?><!DOCTYPE svg PUBLIC "-//W3C//DTD SVG 1.1//EN" "http://www.w3.org/Graphics/SVG/1.1/DTD/svg11.dtd"><svg width="100%" height="100%" viewBox="0 0 2500 2500" version="1.1" xmlns="http://www.w3.org/2000/svg" xmlns:xlink="http://www.w3.org/1999/xlink" xml:space="preserve" xmlns:serif="http://www.serif.com/" style="fill-rule:evenodd;clip-rule:evenodd;stroke-linecap:round;stroke-linejoin:round;stroke-miterlimit:1.5;"><rect x="0" y="0" width="2500" height="2500" style="fill:none;"/><g><g id="heavysleetandthunder"><g id="lightning"><path d="M1431.77,1704.32l-163.824,-71.941l67.106,-365.401l-251.947,462.746l169.079,71.704l-109.615,415.261l289.201,-512.369Z" style="fill:#ffdd15;fill-rule:nonzero;"/></g><path id="cloudy" d="M605.069,818.244c21.223,-299.175 272.42,-535.699 578.744,-535.699c252.143,0 466.935,160.253 546.871,383.831c62.136,-33.343 133.252,-52.279 208.78,-52.279c243.171,0 440.595,196.28 440.595,438.041c-0,241.762 -200.8,448.306 -443.97,448.306l-1436.22,0c-191.567,0 -347.096,-162.82 -347.096,-353.277c0,-190.458 155.529,-345.085 347.096,-345.085c36.666,0 72.012,5.665 105.202,16.162Z" style="fill:#808080;stroke:#cdcdcd;stroke-width:145.83px;"/><g><path d="M376.536,1731.03c-38.138,-21.891 -87.028,-8.791 -109.111,29.235l-107.046,184.335c-22.082,38.026 -9.048,86.671 29.09,108.562c38.137,21.891 87.027,8.791 109.11,-29.235l107.046,-184.335c22.082,-38.026 9.048,-86.671 -29.089,-108.562Z" style="fill:#4a89c5;"/><path d="M1780.01,1731.03c-38.137,-21.891 -87.028,-8.791 -109.11,29.235l-107.047,184.335c-22.082,38.026 -9.047,86.671 29.09,108.562c38.137,21.891 87.028,8.791 109.11,-29.235l107.046,-184.335c22.083,-38.026 9.048,-86.671 -29.089,-108.562Z" style="fill:#4a89c5;"/></g><g><g id="snow"><path d="M890.829,2016.81c13.717,-13.637 13.717,-35.781 0.001,-49.418l-201.934,-200.764c-13.717,-13.637 -35.99,-13.637 -49.707,0c-13.717,13.638 -13.717,35.781 -0,49.419l201.934,200.763c13.717,13.638 35.989,13.637 49.706,0Z" style="fill:#00daff;"/><path d="M765.009,2068.62c19.399,0 35.148,-15.749 35.148,-35.148l0,-283.514c0,-19.399 -15.749,-35.148 -35.148,-35.148c-19.398,0 -35.148,15.749 -35.148,35.148l0,283.514c0,19.399 15.75,35.148 35.148,35.148Z" style="fill:#00daff;"/><path d="M639.189,2016.81c13.717,13.637 35.99,13.638 49.707,0l201.934,-200.763c13.716,-13.638 13.716,-35.781 -0.001,-49.419c-13.717,-13.637 -35.989,-13.637 -49.706,0l-201.934,200.764c-13.717,13.637 -13.717,35.781 0,49.418Z" style="fill:#00daff;"/><path d="M587.073,1891.72c0,19.286 15.658,34.944 34.944,34.944l285.984,0c19.287,0 34.945,-15.658 34.945,-34.944c-0,-19.286 -15.658,-34.944 -34.945,-34.944l-285.984,0c-19.286,0 -34.944,15.658 -34.944,34.944Z" style="fill:#00daff;"/></g><g id="snow1" serif:id="snow"><path d="M2279.33,2016.8c13.717,-13.638 13.717,-35.781 0.001,-49.418l-201.934,-200.764c-13.717,-13.637 -35.99,-13.637 -49.706,0c-13.717,13.638 -13.718,35.781 -0.001,49.418l201.934,200.764c13.717,13.637 35.989,13.637 49.706,-0Z" style="fill:#00daff;"/><path d="M2153.51,2068.62c19.399,0 35.148,-15.749 35.148,-35.148l0,-283.514c0,-19.399 -15.749,-35.148 -35.148,-35.148c-19.398,-0 -35.147,15.749 -35.147,35.148l-0,283.514c-0,19.399 15.749,35.148 35.147,35.148Z" style="fill:#00daff;"/><path d="M2027.69,2016.8c13.716,13.637 35.989,13.637 49.706,0l201.934,-200.764c13.716,-13.637 13.716,-35.78 -0.001,-49.418c-13.717,-13.637 -35.989,-13.637 -49.706,-0l-201.934,200.764c-13.717,13.637 -13.716,35.78 0.001,49.418Z" style="fill:#00daff;"/><path d="M1975.58,1891.71c0,19.286 15.658,34.944 34.944,34.944l285.984,0c19.287,0 34.945,-15.658 34.945,-34.944c-0,-19.286 -15.658,-34.944 -34.945,-34.944l-285.984,-0c-19.286,-0 -34.944,15.658 -34.944,34.944Z" style="fill:#00daff;"/></g></g></g></g></svg>