<?xml version="1.0" encoding="UTF-8" standalone="no"?><!DOCTYPE svg PUBLIC "-//W3C//DTD SVG 1.1//EN" "http://www.w3.org/Graphics/SVG/1.1/DTD/svg11.dtd"><svg width="100%" height="100%" viewBox="0 0 2500 2500" version="1.1" xmlns="http://www.w3.org/2000/svg" xmlns:xlink="http://www.w3.org/1999/xlink" xml:space="preserve" xmlns:serif="http://www.serif.com/" style="fill-rule:evenodd;clip-rule:evenodd;stroke-linecap:round;stroke-linejoin:round;stroke-miterlimit:1.5;"><rect x="0" y="0" width="2500" height="2500" style="fill:none;"/><g><g id="heavysleetshowerandthunder"><ellipse id="clearsky" cx="936.545" cy="965.814" rx="796.945" ry="792.326" style="fill:#ffd600;"/><clipPath id="_clip1"><ellipse cx="936.545" cy="965.814" rx="796.945" ry="792.326"/></clipPath><g clip-path="url(#_clip1)"><ellipse cx="936.545" cy="965.814" rx="639.364" ry="635.658" style="fill:#ffa500;"/></g><g id="heavysleetandthunder"><g id="lightning"><path d="M1601.23,1900.54l-135.955,-59.702l55.69,-303.239l-209.086,384.024l140.315,59.505l-90.967,344.617l240.003,-425.205Z" style="fill:#ffdd15;fill-rule:nonzero;"/></g><path id="cloudy" d="M917.06,1165.2c17.612,-248.279 226.076,-444.566 480.288,-444.566c209.248,0 387.5,132.991 453.838,318.534c51.565,-27.671 110.582,-43.385 173.262,-43.385c201.803,0 365.641,162.889 365.641,363.522c-0,200.633 -166.64,372.04 -368.442,372.04l-1191.89,-0c-158.978,-0 -288.048,-135.121 -288.048,-293.178c-0,-158.057 129.07,-286.379 288.048,-286.379c30.428,-0 59.761,4.701 87.305,13.412Z" style="fill:#808080;stroke:#cdcdcd;stroke-width:145.83px;"/><g><g id="snow"><path d="M1128.98,2159.87c11.383,-11.317 11.383,-29.694 0,-41.011l-167.581,-166.61c-11.383,-11.317 -29.867,-11.317 -41.25,0c-11.384,11.318 -11.384,29.694 -0.001,41.011l167.582,166.61c11.383,11.318 29.866,11.317 41.25,-0Z" style="fill:#00daff;"/><path d="M1024.56,2202.87c16.099,-0 29.169,-13.07 29.169,-29.169l-0,-235.283c-0,-16.098 -13.07,-29.168 -29.169,-29.168c-16.098,-0 -29.168,13.07 -29.168,29.168l-0,235.283c-0,16.099 13.07,29.169 29.168,29.169Z" style="fill:#00daff;"/><path d="M920.145,2159.87c11.383,11.317 29.867,11.318 41.25,0l167.581,-166.61c11.383,-11.317 11.383,-29.693 -0,-41.011c-11.384,-11.317 -29.867,-11.317 -41.25,-0l-167.582,166.61c-11.383,11.317 -11.383,29.694 0.001,41.011Z" style="fill:#00daff;"/><path d="M876.894,2056.06c0,16.005 12.995,28.999 29,28.999l237.333,0c16.005,0 28.999,-12.994 28.999,-28.999c0,-16.006 -12.994,-29 -28.999,-29l-237.333,0c-16.005,0 -29,12.994 -29,29Z" style="fill:#00daff;"/></g><g id="snow1" serif:id="snow"><path d="M2281.27,2159.87c11.383,-11.318 11.384,-29.694 0,-41.011l-167.581,-166.61c-11.383,-11.318 -29.867,-11.317 -41.25,-0c-11.383,11.317 -11.384,29.694 -0,41.011l167.581,166.61c11.383,11.317 29.867,11.317 41.25,-0Z" style="fill:#00daff;"/><path d="M2176.85,2202.86c16.098,0 29.168,-13.07 29.168,-29.168l0,-235.283c0,-16.099 -13.07,-29.169 -29.168,-29.169c-16.099,0 -29.169,13.07 -29.169,29.169l-0,235.283c-0,16.098 13.07,29.168 29.169,29.168Z" style="fill:#00daff;"/><path d="M2072.44,2159.87c11.383,11.317 29.867,11.317 41.25,0l167.581,-166.61c11.384,-11.317 11.383,-29.694 0,-41.011c-11.383,-11.317 -29.867,-11.318 -41.25,-0l-167.581,166.61c-11.384,11.317 -11.383,29.693 0,41.011Z" style="fill:#00daff;"/><path d="M2029.19,2056.05c-0,16.006 12.994,29 28.999,29l237.333,-0c16.005,-0 28.999,-12.994 28.999,-29c0,-16.005 -12.994,-28.999 -28.999,-28.999l-237.333,-0c-16.005,-0 -28.999,12.994 -28.999,28.999Z" style="fill:#00daff;"/></g></g><g><path d="M719.389,1922.71c-31.65,-18.167 -72.223,-7.296 -90.549,24.261l-88.835,152.976c-18.326,31.557 -7.509,71.927 24.14,90.094c31.65,18.166 72.223,7.295 90.549,-24.262l88.835,-152.976c18.326,-31.557 7.509,-71.926 -24.14,-90.093Z" style="fill:#4a89c5;"/><path d="M1884.11,1922.71c-31.65,-18.167 -72.223,-7.296 -90.549,24.261l-88.835,152.976c-18.326,31.557 -7.509,71.927 24.14,90.094c31.65,18.166 72.223,7.295 90.549,-24.262l88.835,-152.976c18.326,-31.557 7.509,-71.926 -24.14,-90.093Z" style="fill:#4a89c5;"/></g></g></g></g></svg>