<?xml version="1.0" encoding="UTF-8" standalone="no"?><!DOCTYPE svg PUBLIC "-//W3C//DTD SVG 1.1//EN" "http://www.w3.org/Graphics/SVG/1.1/DTD/svg11.dtd"><svg width="100%" height="100%" viewBox="0 0 2500 2500" version="1.1" xmlns="http://www.w3.org/2000/svg" xmlns:xlink="http://www.w3.org/1999/xlink" xml:space="preserve" xmlns:serif="http://www.serif.com/" style="fill-rule:evenodd;clip-rule:evenodd;stroke-linecap:round;stroke-linejoin:round;stroke-miterlimit:1.5;"><rect x="0" y="0" width="2500" height="2500" style="fill:none;"/><g><g id="lightsnowshowersandthunder"><ellipse id="clearsky" cx="973.811" cy="977.526" rx="747.033" ry="742.703" style="fill:#fff;"/><clipPath id="_clip1"><ellipse cx="973.811" cy="977.526" rx="747.033" ry="742.703"/></clipPath><g clip-path="url(#_clip1)"><ellipse id="center" cx="973.811" cy="977.526" rx="599.321" ry="595.848" style="fill-opacity:0.3;"/></g><g id="heavysnowandthunder"><g id="lightning"><path d="M1550.77,1865.83l-127.44,-55.963l52.202,-284.248l-195.99,359.974l131.527,55.778l-85.27,323.034l224.971,-398.575Z" style="fill:#ffdd15;fill-rule:nonzero;"/></g><path id="cloudy" d="M922.136,1177.52c16.509,-232.729 211.917,-416.723 450.208,-416.723c196.143,0 363.232,124.662 425.415,298.585c48.335,-25.938 103.656,-40.668 162.411,-40.668c189.163,-0 342.74,152.687 342.74,340.754c0,188.068 -156.203,348.74 -345.366,348.74l-1117.25,-0c-149.022,-0 -270.008,-126.659 -270.008,-274.817c-0,-148.157 120.986,-268.443 270.008,-268.443c28.523,0 56.018,4.407 81.837,12.572Z" style="fill:#808080;stroke:#cdcdcd;stroke-width:145.83px;"/></g><g><g id="snow"><path d="M1090.03,2076.53c10.671,-10.609 10.671,-27.834 0,-38.443l-157.085,-156.175c-10.67,-10.608 -27.996,-10.608 -38.667,0c-10.67,10.609 -10.671,27.835 -0,38.443l157.085,156.175c10.671,10.609 27.997,10.609 38.667,-0Z" style="fill:#00daff;"/><path d="M992.15,2116.84c15.09,-0 27.342,-12.252 27.342,-27.342l-0,-220.548c-0,-15.09 -12.252,-27.341 -27.342,-27.341c-15.09,-0 -27.342,12.251 -27.342,27.341l0,220.548c0,15.09 12.252,27.342 27.342,27.342Z" style="fill:#00daff;"/><path d="M894.274,2076.53c10.671,10.609 27.997,10.609 38.667,0l157.085,-156.175c10.671,-10.608 10.671,-27.834 0,-38.443c-10.67,-10.608 -27.996,-10.608 -38.667,-0l-157.085,156.175c-10.671,10.609 -10.67,27.834 0,38.443Z" style="fill:#00daff;"/><path d="M853.733,1979.22c-0,15.003 12.18,27.183 27.183,27.183l222.468,0c15.003,0 27.184,-12.18 27.184,-27.183c-0,-15.003 -12.181,-27.183 -27.184,-27.183l-222.468,-0c-15.003,-0 -27.183,12.18 -27.183,27.183Z" style="fill:#00daff;"/></g><g id="snow1" serif:id="snow"><path d="M1947.8,2076.53c10.67,-10.609 10.671,-27.834 0,-38.443l-157.085,-156.175c-10.671,-10.608 -27.997,-10.608 -38.667,0c-10.671,10.609 -10.671,27.835 -0,38.443l157.085,156.175c10.67,10.609 27.996,10.609 38.667,-0Z" style="fill:#00daff;"/><path d="M1849.92,2116.84c15.09,-0 27.342,-12.252 27.342,-27.342l-0,-220.548c-0,-15.09 -12.252,-27.341 -27.342,-27.341c-15.09,-0 -27.342,12.251 -27.342,27.341l0,220.548c0,15.09 12.252,27.342 27.342,27.342Z" style="fill:#00daff;"/><path d="M1752.05,2076.53c10.67,10.609 27.996,10.609 38.667,0l157.085,-156.175c10.671,-10.608 10.67,-27.834 -0,-38.443c-10.671,-10.608 -27.997,-10.608 -38.667,-0l-157.085,156.175c-10.671,10.609 -10.671,27.834 -0,38.443Z" style="fill:#00daff;"/><path d="M1711.51,1979.22c0,15.003 12.181,27.183 27.184,27.183l222.468,0c15.003,0 27.183,-12.18 27.183,-27.183c0,-15.003 -12.18,-27.183 -27.183,-27.183l-222.468,-0c-15.003,-0 -27.184,12.18 -27.184,27.183Z" style="fill:#00daff;"/></g></g></g></g></svg>