<?xml version="1.0" encoding="UTF-8" standalone="no"?><!DOCTYPE svg PUBLIC "-//W3C//DTD SVG 1.1//EN" "http://www.w3.org/Graphics/SVG/1.1/DTD/svg11.dtd"><svg width="100%" height="100%" viewBox="0 0 2500 2500" version="1.1" xmlns="http://www.w3.org/2000/svg" xmlns:xlink="http://www.w3.org/1999/xlink" xml:space="preserve" xmlns:serif="http://www.serif.com/" style="fill-rule:evenodd;clip-rule:evenodd;stroke-linecap:round;stroke-linejoin:round;stroke-miterlimit:1.5;"><rect x="0" y="0" width="2500" height="2500" style="fill:none;"/><g><g id="lightsleetandthunder"><g id="lightning"><path d="M1375.36,1720.64l-165.567,-72.706l67.82,-369.287l-254.626,467.667l170.877,72.466l-110.78,419.677l292.276,-517.817Z" style="fill:#ffdd15;fill-rule:nonzero;"/></g><path id="cloudy" d="M596.465,802.167c21.449,-302.356 275.318,-541.396 584.899,-541.396c254.824,0 471.901,161.957 552.687,387.913c62.797,-33.698 134.669,-52.834 211.001,-52.834c245.756,-0 445.279,198.366 445.279,442.699c0,244.332 -202.934,453.073 -448.691,453.073l-1451.5,0c-193.605,0 -350.787,-164.551 -350.787,-357.034c-0,-192.483 157.182,-348.755 350.787,-348.755c37.056,0 72.778,5.725 106.32,16.334Z" style="fill:#808080;stroke:#cdcdcd;stroke-width:145.83px;"/><g><g id="snow"><path d="M765.212,1973.89c13.863,-13.783 13.863,-36.162 0.001,-49.944l-204.082,-202.899c-13.862,-13.782 -36.372,-13.782 -50.234,0c-13.863,13.783 -13.863,36.162 -0.001,49.944l204.082,202.899c13.862,13.782 36.372,13.782 50.234,-0Z" style="fill:#00daff;"/><path d="M638.055,2026.26c19.604,-0 35.521,-15.917 35.521,-35.522l0,-286.529c0,-19.605 -15.917,-35.522 -35.521,-35.522c-19.605,0 -35.522,15.917 -35.522,35.522l-0,286.529c-0,19.605 15.917,35.522 35.522,35.522Z" style="fill:#00daff;"/><path d="M510.897,1973.89c13.862,13.782 36.372,13.782 50.234,0l204.082,-202.899c13.862,-13.782 13.862,-36.161 -0.001,-49.944c-13.862,-13.782 -36.372,-13.782 -50.234,0l-204.082,202.899c-13.862,13.782 -13.862,36.161 0.001,49.944Z" style="fill:#00daff;"/><path d="M458.226,1847.47c-0,19.491 15.824,35.315 35.316,35.315l289.025,0c19.492,0 35.316,-15.824 35.316,-35.315c0,-19.492 -15.824,-35.316 -35.316,-35.316l-289.025,-0c-19.492,-0 -35.316,15.824 -35.316,35.316Z" style="fill:#00daff;"/></g><path d="M1839.28,1697.33c-38.543,-22.124 -87.954,-8.885 -110.271,29.546l-108.185,186.295c-22.317,38.431 -9.144,87.593 29.399,109.717c38.543,22.124 87.954,8.885 110.271,-29.546l108.184,-186.295c22.318,-38.431 9.144,-87.593 -29.398,-109.717Z" style="fill:#4a89c5;"/></g></g></g></svg>