<?xml version="1.0" encoding="UTF-8" standalone="no"?><!DOCTYPE svg PUBLIC "-//W3C//DTD SVG 1.1//EN" "http://www.w3.org/Graphics/SVG/1.1/DTD/svg11.dtd"><svg width="100%" height="100%" viewBox="0 0 2500 2500" version="1.1" xmlns="http://www.w3.org/2000/svg" xmlns:xlink="http://www.w3.org/1999/xlink" xml:space="preserve" xmlns:serif="http://www.serif.com/" style="fill-rule:evenodd;clip-rule:evenodd;stroke-linecap:round;stroke-linejoin:round;stroke-miterlimit:1.5;"><rect x="0" y="0" width="2500" height="2500" style="fill:none;"/><g id="lightsnowshowers"><ellipse id="clearsky" cx="946.428" cy="1052.61" rx="754.64" ry="750.267" style="fill:#ffd600;"/><clipPath id="_clip1"><ellipse cx="946.428" cy="1052.61" rx="754.64" ry="750.267"/></clipPath><g clip-path="url(#_clip1)"><ellipse cx="946.428" cy="1052.61" rx="605.424" ry="601.915" style="fill:#ffa500;"/></g><g id="heavysleet"><path id="cloudy" d="M943.066,1250.03c16.677,-235.099 214.075,-420.966 454.793,-420.966c198.14,-0 366.93,125.931 429.746,301.625c48.828,-26.202 104.713,-41.082 164.065,-41.082c191.09,-0 346.231,154.241 346.231,344.224c0,189.983 -157.794,352.291 -348.884,352.291l-1128.62,0c-150.539,0 -272.758,-127.948 -272.758,-277.615c0,-149.666 122.219,-271.177 272.758,-271.177c28.813,0 56.588,4.452 82.67,12.7Z" style="fill:#808080;stroke:#cdcdcd;stroke-width:145.83px;"/></g><g><g id="snow"><path d="M1254.51,2156.17c10.779,-10.716 10.779,-28.117 0,-38.834l-158.685,-157.765c-10.779,-10.717 -28.281,-10.717 -39.06,-0c-10.78,10.717 -10.78,28.118 -0.001,38.834l158.686,157.766c10.779,10.716 28.281,10.716 39.06,-0.001Z" style="fill:#00daff;"/><path d="M1155.64,2196.89c15.244,0 27.621,-12.376 27.621,-27.62l-0,-222.793c-0,-15.244 -12.377,-27.62 -27.621,-27.62c-15.244,-0 -27.62,12.376 -27.62,27.62l0,222.793c0,15.244 12.376,27.62 27.62,27.62Z" style="fill:#00daff;"/><path d="M1056.77,2156.17c10.779,10.717 28.281,10.717 39.06,0.001l158.685,-157.766c10.779,-10.716 10.779,-28.117 0,-38.834c-10.779,-10.717 -28.281,-10.717 -39.06,-0l-158.686,157.765c-10.779,10.717 -10.779,28.118 0.001,38.834Z" style="fill:#00daff;"/><path d="M1015.81,2057.87c0,15.155 12.305,27.46 27.46,27.46l224.734,-0c15.156,-0 27.46,-12.305 27.46,-27.46c0,-15.156 -12.304,-27.46 -27.46,-27.46l-224.734,-0c-15.155,-0 -27.46,12.304 -27.46,27.46Z" style="fill:#00daff;"/></g><g id="snow1" serif:id="snow"><path d="M1920.74,2156.17c10.779,-10.716 10.779,-28.117 0,-38.834l-158.685,-157.765c-10.779,-10.717 -28.282,-10.717 -39.061,-0c-10.779,10.717 -10.779,28.118 -0,38.834l158.685,157.766c10.779,10.716 28.282,10.716 39.061,-0.001Z" style="fill:#00daff;"/><path d="M1821.87,2196.89c15.244,0 27.62,-12.376 27.62,-27.62l0,-222.793c0,-15.244 -12.376,-27.62 -27.62,-27.62c-15.244,-0 -27.62,12.376 -27.62,27.62l-0,222.793c-0,15.244 12.376,27.62 27.62,27.62Z" style="fill:#00daff;"/><path d="M1723,2156.17c10.779,10.717 28.282,10.717 39.061,0.001l158.685,-157.766c10.779,-10.716 10.779,-28.117 -0,-38.834c-10.779,-10.717 -28.282,-10.717 -39.061,-0l-158.685,157.765c-10.779,10.717 -10.779,28.118 0,38.834Z" style="fill:#00daff;"/><path d="M1682.04,2057.87c-0,15.155 12.304,27.46 27.46,27.46l224.734,-0c15.156,-0 27.46,-12.305 27.46,-27.46c0,-15.156 -12.304,-27.46 -27.46,-27.46l-224.734,-0c-15.156,-0 -27.46,12.304 -27.46,27.46Z" style="fill:#00daff;"/></g></g></g></svg>