<?xml version="1.0" encoding="UTF-8" standalone="no"?><!DOCTYPE svg PUBLIC "-//W3C//DTD SVG 1.1//EN" "http://www.w3.org/Graphics/SVG/1.1/DTD/svg11.dtd"><svg width="100%" height="100%" viewBox="0 0 2500 2500" version="1.1" xmlns="http://www.w3.org/2000/svg" xmlns:xlink="http://www.w3.org/1999/xlink" xml:space="preserve" xmlns:serif="http://www.serif.com/" style="fill-rule:evenodd;clip-rule:evenodd;stroke-linecap:round;stroke-linejoin:round;stroke-miterlimit:1.5;"><rect x="0" y="0" width="2500" height="2500" style="fill:none;"/><g><g id="lightsleetshowers"><ellipse id="clearsky" cx="934.958" cy="1042.56" rx="781.823" ry="777.293" style="fill:#ffd600;"/><clipPath id="_clip1"><ellipse cx="934.958" cy="1042.56" rx="781.823" ry="777.293"/></clipPath><g clip-path="url(#_clip1)"><ellipse cx="934.958" cy="1042.56" rx="627.233" ry="623.598" style="fill:#ffa500;"/></g><g id="heavysleet"><path id="cloudy" d="M931.475,1247.09c17.278,-243.568 221.786,-436.13 471.175,-436.13c205.278,-0 380.148,130.467 445.227,312.49c50.587,-27.146 108.484,-42.562 169.975,-42.562c197.973,-0 358.703,159.798 358.703,356.624c-0,196.826 -163.478,364.981 -361.451,364.981l-1169.28,0c-155.962,0 -282.583,-132.557 -282.583,-287.615c-0,-155.058 126.621,-280.945 282.583,-280.945c29.851,-0 58.627,4.611 85.648,13.157Z" style="fill:#808080;stroke:#cdcdcd;stroke-width:145.83px;"/></g><g><g id="snow"><path d="M1254.14,2185.87c11.167,-11.103 11.167,-29.13 0,-40.233l-164.401,-163.449c-11.167,-11.102 -29.3,-11.102 -40.468,0.001c-11.167,11.102 -11.167,29.13 -0,40.233l164.401,163.448c11.168,11.103 29.3,11.103 40.468,0Z" style="fill:#00daff;"/><path d="M1151.71,2228.05c15.793,-0 28.615,-12.822 28.615,-28.615l-0,-230.819c-0,-15.793 -12.822,-28.615 -28.615,-28.615c-15.794,-0 -28.616,12.822 -28.616,28.615l0,230.819c0,15.793 12.822,28.615 28.616,28.615Z" style="fill:#00daff;"/><path d="M1049.27,2185.87c11.168,11.103 29.301,11.103 40.468,0l164.401,-163.448c11.167,-11.103 11.167,-29.131 -0,-40.233c-11.168,-11.103 -29.3,-11.103 -40.468,-0.001l-164.401,163.449c-11.167,11.103 -11.167,29.13 0,40.233Z" style="fill:#00daff;"/><path d="M1006.84,2084.03c-0,15.702 12.747,28.45 28.449,28.45l232.829,-0c15.702,-0 28.45,-12.748 28.45,-28.45c-0,-15.701 -12.748,-28.449 -28.45,-28.449l-232.829,0c-15.702,0 -28.449,12.748 -28.449,28.449Z" style="fill:#00daff;"/></g><path d="M1934.54,1963.08c-31.049,-17.823 -70.852,-7.158 -88.83,23.801l-87.15,150.073c-17.978,30.959 -7.366,70.562 23.682,88.384c31.049,17.822 70.853,7.158 88.831,-23.801l87.15,-150.073c17.978,-30.959 7.366,-70.562 -23.683,-88.384Z" style="fill:#4a89c5;"/></g></g></g></svg>