<?xml version="1.0" encoding="UTF-8" standalone="no"?><!DOCTYPE svg PUBLIC "-//W3C//DTD SVG 1.1//EN" "http://www.w3.org/Graphics/SVG/1.1/DTD/svg11.dtd"><svg width="100%" height="100%" viewBox="0 0 2500 2500" version="1.1" xmlns="http://www.w3.org/2000/svg" xmlns:xlink="http://www.w3.org/1999/xlink" xml:space="preserve" xmlns:serif="http://www.serif.com/" style="fill-rule:evenodd;clip-rule:evenodd;stroke-linecap:round;stroke-linejoin:round;stroke-miterlimit:1.5;"><rect x="0" y="0" width="2500" height="2500" style="fill:none;"/><g id="lightsnowandthunder"><g id="lightning"><path d="M1367.8,1688.42l-154.239,-67.732l63.179,-344.022l-237.205,435.672l159.186,67.508l-103.201,390.965l272.28,-482.391Z" style="fill:#ffdd15;fill-rule:nonzero;"/></g><path id="cloudy" d="M642.193,832.78c19.981,-281.67 256.481,-504.356 544.883,-504.356c237.39,0 439.615,150.877 514.874,361.374c58.5,-31.393 125.455,-49.22 196.565,-49.22c228.943,-0 414.815,184.795 414.815,412.411c0,227.616 -189.051,422.076 -417.994,422.076l-1352.19,0c-180.359,0 -326.788,-153.293 -326.788,-332.607c-0,-179.314 146.429,-324.894 326.788,-324.894c34.52,-0 67.798,5.333 99.046,15.216Z" style="fill:#808080;stroke:#cdcdcd;stroke-width:145.83px;"/><g><g id="snow"><path d="M799.395,1924.34c12.915,-12.84 12.915,-33.688 0.001,-46.527l-190.119,-189.018c-12.915,-12.839 -33.884,-12.839 -46.798,0.001c-12.915,12.839 -12.915,33.687 -0.001,46.527l190.119,189.017c12.914,12.839 33.884,12.839 46.798,-0Z" style="fill:#00daff;"/><path d="M680.937,1973.12c18.264,0 33.091,-14.828 33.091,-33.091l0,-266.926c0,-18.264 -14.827,-33.092 -33.091,-33.092c-18.264,0 -33.092,14.828 -33.092,33.092l0,266.926c0,18.263 14.828,33.091 33.092,33.091Z" style="fill:#00daff;"/><path d="M562.479,1924.34c12.914,12.839 33.883,12.839 46.798,-0l190.119,-189.017c12.914,-12.84 12.914,-33.688 -0.001,-46.527c-12.914,-12.84 -33.884,-12.84 -46.798,-0.001l-190.119,189.018c-12.914,12.839 -12.914,33.687 0.001,46.527Z" style="fill:#00daff;"/><path d="M513.412,1806.57c-0,18.157 14.741,32.899 32.899,32.899l269.252,0c18.157,0 32.899,-14.742 32.899,-32.899c0,-18.158 -14.742,-32.9 -32.899,-32.9l-269.252,-0c-18.158,-0 -32.899,14.742 -32.899,32.9Z" style="fill:#00daff;"/></g><g id="snow1" serif:id="snow"><path d="M1847.34,1924.34c12.915,-12.84 12.915,-33.688 0.001,-46.527l-190.12,-189.018c-12.914,-12.839 -33.883,-12.839 -46.797,0.001c-12.915,12.839 -12.915,33.687 -0.001,46.527l190.119,189.017c12.914,12.839 33.884,12.839 46.798,-0Z" style="fill:#00daff;"/><path d="M1728.88,1973.12c18.264,0 33.091,-14.828 33.091,-33.091l0,-266.926c0,-18.264 -14.827,-33.092 -33.091,-33.092c-18.264,0 -33.092,14.828 -33.092,33.092l0,266.926c0,18.263 14.828,33.091 33.092,33.091Z" style="fill:#00daff;"/><path d="M1610.43,1924.34c12.914,12.839 33.883,12.839 46.797,-0l190.12,-189.017c12.914,-12.84 12.914,-33.688 -0.001,-46.527c-12.914,-12.84 -33.884,-12.84 -46.798,-0.001l-190.119,189.018c-12.914,12.839 -12.914,33.687 0.001,46.527Z" style="fill:#00daff;"/><path d="M1561.36,1806.57c0,18.157 14.742,32.899 32.9,32.899l269.252,0c18.157,0 32.899,-14.742 32.899,-32.899c0,-18.158 -14.742,-32.9 -32.899,-32.9l-269.252,-0c-18.158,-0 -32.9,14.742 -32.9,32.9Z" style="fill:#00daff;"/></g></g></g></svg>