<?xml version="1.0" encoding="UTF-8" standalone="no"?><!DOCTYPE svg PUBLIC "-//W3C//DTD SVG 1.1//EN" "http://www.w3.org/Graphics/SVG/1.1/DTD/svg11.dtd"><svg width="100%" height="100%" viewBox="0 0 2500 2500" version="1.1" xmlns="http://www.w3.org/2000/svg" xmlns:xlink="http://www.w3.org/1999/xlink" xml:space="preserve" xmlns:serif="http://www.serif.com/" style="fill-rule:evenodd;clip-rule:evenodd;stroke-linecap:round;stroke-linejoin:round;stroke-miterlimit:1.5;"><rect x="0" y="0" width="2500" height="2500" style="fill:none;"/><g><g id="sleetandthunder"><g id="lightning"><path d="M1424.74,1689.3l-158.415,-69.565l64.89,-353.337l-243.628,447.468l163.497,69.336l-105.996,401.55l279.652,-495.452Z" style="fill:#ffdd15;fill-rule:nonzero;"/></g><path id="cloudy" d="M625.335,832.487c20.522,-289.296 263.425,-518.011 559.635,-518.011c243.817,-0 451.518,154.961 528.815,371.158c60.084,-32.243 128.851,-50.553 201.886,-50.553c235.142,-0 426.047,189.799 426.047,423.578c-0,233.779 -194.17,433.503 -429.311,433.503l-1388.8,0c-185.243,0 -335.636,-157.444 -335.636,-341.613c-0,-184.168 150.393,-333.69 335.636,-333.69c35.455,-0 69.634,5.477 101.728,15.628Z" style="fill:#808080;stroke:#cdcdcd;stroke-width:145.83px;"/><g><path d="M757.66,1715.13c-36.878,-21.169 -84.154,-8.501 -105.507,28.269l-103.512,178.249c-21.353,36.77 -8.749,83.809 28.129,104.977c36.878,21.169 84.154,8.501 105.508,-28.269l103.511,-178.249c21.354,-36.77 8.749,-83.809 -28.129,-104.977Z" style="fill:#4a89c5;"/></g><g><g id="snow"><path d="M1914.88,1991.47c13.264,-13.187 13.264,-34.6 0,-47.787l-195.266,-194.135c-13.264,-13.187 -34.801,-13.186 -48.065,0.001c-13.264,13.187 -13.265,34.599 -0.001,47.786l195.267,194.135c13.264,13.187 34.801,13.187 48.065,-0Z" style="fill:#00daff;"/><path d="M1793.21,2041.58c18.758,0 33.988,-15.229 33.988,-33.987l-0,-274.153c-0,-18.758 -15.23,-33.988 -33.988,-33.988c-18.758,0 -33.987,15.23 -33.987,33.988l-0,274.153c-0,18.758 15.229,33.987 33.987,33.987Z" style="fill:#00daff;"/><path d="M1671.55,1991.47c13.264,13.187 34.801,13.187 48.065,0l195.266,-194.135c13.264,-13.187 13.264,-34.599 -0,-47.786c-13.264,-13.187 -34.801,-13.188 -48.065,-0.001l-195.267,194.135c-13.264,13.187 -13.263,34.6 0.001,47.787Z" style="fill:#00daff;"/><path d="M1621.15,1870.51c0,18.65 15.141,33.791 33.791,33.791l276.541,-0c18.649,-0 33.79,-15.141 33.79,-33.791c0,-18.649 -15.141,-33.79 -33.79,-33.79l-276.541,-0c-18.65,-0 -33.791,15.141 -33.791,33.79Z" style="fill:#00daff;"/></g></g></g></g></svg>