<?xml version="1.0" encoding="UTF-8" standalone="no"?><!DOCTYPE svg PUBLIC "-//W3C//DTD SVG 1.1//EN" "http://www.w3.org/Graphics/SVG/1.1/DTD/svg11.dtd"><svg width="100%" height="100%" viewBox="0 0 2500 2500" version="1.1" xmlns="http://www.w3.org/2000/svg" xmlns:xlink="http://www.w3.org/1999/xlink" xml:space="preserve" xmlns:serif="http://www.serif.com/" style="fill-rule:evenodd;clip-rule:evenodd;stroke-linecap:round;stroke-linejoin:round;stroke-miterlimit:1.5;"><rect x="0" y="0" width="2500" height="2500" style="fill:none;"/><g><g id="sleet"><path id="cloudy" d="M626.178,897.638c20.495,-288.915 263.078,-517.328 558.897,-517.328c243.496,0 450.923,154.757 528.118,370.668c60.005,-32.199 128.681,-50.486 201.62,-50.486c234.832,0 425.485,189.549 425.485,423.02c0,233.47 -193.913,432.932 -428.745,432.932l-1386.97,-0c-184.998,-0 -335.193,-157.237 -335.193,-341.163c-0,-183.926 150.195,-333.25 335.193,-333.25c35.409,-0 69.542,5.47 101.594,15.607Z" style="fill:#808080;stroke:#cdcdcd;stroke-width:145.83px;"/><g><g><path d="M1370.33,2068.88c13.246,-13.169 13.247,-34.554 0,-47.723l-195.009,-193.879c-13.246,-13.17 -34.755,-13.17 -48.002,0c-13.246,13.17 -13.246,34.554 0,47.724l195.009,193.879c13.246,13.169 34.755,13.169 48.002,-0.001Z" style="fill:#00daff;"/><path d="M1248.83,2118.92c18.733,-0 33.942,-15.209 33.942,-33.943l0,-273.792c0,-18.733 -15.209,-33.942 -33.942,-33.942c-18.734,-0 -33.943,15.209 -33.943,33.942l0,273.792c0,18.734 15.209,33.943 33.943,33.943Z" style="fill:#00daff;"/><path d="M1128.76,2070.32c12.452,12.38 32.671,12.38 45.122,0l197.889,-196.742c12.452,-12.379 12.452,-32.481 -0,-44.86l-2.88,-2.864c-12.452,-12.379 -32.67,-12.379 -45.122,0l-197.889,196.743c-12.452,12.379 -12.451,32.48 0,44.86l2.88,2.863Z" style="fill:#00daff;"/><path d="M1076.99,1948.08c0,18.625 15.121,33.746 33.746,33.746l276.177,0c18.625,0 33.746,-15.121 33.746,-33.746c-0,-18.625 -15.121,-33.746 -33.746,-33.746l-276.177,0c-18.625,0 -33.746,15.121 -33.746,33.746Z" style="fill:#00daff;"/></g><path d="M656.13,1789.95c-36.829,-21.14 -84.044,-8.489 -105.369,28.233l-103.375,178.013c-21.325,36.722 -8.737,83.699 28.092,104.84c36.829,21.14 84.043,8.489 105.369,-28.233l103.375,-178.013c21.325,-36.722 8.737,-83.699 -28.092,-104.84Z" style="fill:#4a89c5;"/><path d="M1959.65,1789.95c-36.83,-21.14 -84.044,-8.489 -105.369,28.233l-103.375,178.013c-21.325,36.722 -8.738,83.699 28.092,104.84c36.829,21.14 84.043,8.489 105.368,-28.233l103.376,-178.013c21.325,-36.722 8.737,-83.699 -28.092,-104.84Z" style="fill:#4a89c5;"/></g></g></g></svg>