<?xml version="1.0" encoding="UTF-8" standalone="no"?><!DOCTYPE svg PUBLIC "-//W3C//DTD SVG 1.1//EN" "http://www.w3.org/Graphics/SVG/1.1/DTD/svg11.dtd"><svg width="100%" height="100%" viewBox="0 0 2500 2500" version="1.1" xmlns="http://www.w3.org/2000/svg" xmlns:xlink="http://www.w3.org/1999/xlink" xml:space="preserve" xmlns:serif="http://www.serif.com/" style="fill-rule:evenodd;clip-rule:evenodd;stroke-linecap:round;stroke-linejoin:round;stroke-miterlimit:1.5;"><rect x="0" y="0" width="2500" height="2500" style="fill:none;"/><g><g id="sleetshower"><ellipse id="clearsky" cx="947.413" cy="1017.79" rx="765.978" ry="761.539" style="fill:#ffd600;"/><clipPath id="_clip1"><ellipse cx="947.413" cy="1017.79" rx="765.978" ry="761.539"/></clipPath><g clip-path="url(#_clip1)"><ellipse cx="947.413" cy="1017.79" rx="614.52" ry="610.959" style="fill:#ffa500;"/></g><g id="heavysleet"><path id="cloudy" d="M932.462,1244.76c16.928,-238.631 217.292,-427.291 461.626,-427.291c201.118,0 372.443,127.823 436.203,306.157c49.562,-26.596 106.286,-41.7 166.53,-41.7c193.961,0 351.433,156.559 351.433,349.397c-0,192.837 -160.165,357.583 -354.126,357.583l-1145.58,0c-152.801,0 -276.856,-129.87 -276.856,-281.786c0,-151.915 124.055,-275.251 276.856,-275.251c29.246,0 57.439,4.519 83.912,12.891Z" style="fill:#808080;stroke:#cdcdcd;stroke-width:145.83px;"/><g id="snow"><path d="M1537.66,2201.66c10.942,-10.878 10.942,-28.54 0.001,-39.418l-161.07,-160.136c-10.94,-10.877 -28.706,-10.877 -39.647,0.001c-10.941,10.877 -10.941,28.54 -0,39.417l161.069,160.136c10.941,10.878 28.706,10.878 39.647,-0Z" style="fill:#00daff;"/><path d="M1437.31,2242.99c15.473,-0 28.035,-12.562 28.035,-28.035l0,-226.141c0,-15.473 -12.562,-28.035 -28.035,-28.035c-15.473,-0 -28.035,12.562 -28.035,28.035l0,226.141c0,15.473 12.562,28.035 28.035,28.035Z" style="fill:#00daff;"/><path d="M1336.95,2201.66c10.941,10.878 28.707,10.878 39.647,0l161.07,-160.136c10.941,-10.877 10.941,-28.54 -0.001,-39.417c-10.941,-10.878 -28.706,-10.878 -39.647,-0.001l-161.069,160.136c-10.941,10.878 -10.941,28.54 0,39.418Z" style="fill:#00daff;"/><path d="M1295.38,2101.88c0,15.384 12.49,27.873 27.873,27.873l228.111,0c15.383,0 27.872,-12.489 27.872,-27.873c0,-15.383 -12.489,-27.872 -27.872,-27.872l-228.111,-0c-15.383,-0 -27.873,12.489 -27.873,27.872Z" style="fill:#00daff;"/></g><path d="M998.964,1961.15c-30.42,-17.461 -69.417,-7.012 -87.03,23.319l-85.384,147.032c-17.613,30.331 -7.217,69.132 23.203,86.593c30.419,17.461 69.416,7.012 87.03,-23.319l85.384,-147.032c17.613,-30.331 7.216,-69.132 -23.203,-86.593Z" style="fill:#4a89c5;"/><path d="M2011.26,1961.15c-30.419,-17.461 -69.416,-7.012 -87.03,23.319l-85.384,147.032c-17.613,30.331 -7.216,69.132 23.203,86.593c30.42,17.461 69.417,7.012 87.03,-23.319l85.384,-147.032c17.613,-30.331 7.217,-69.132 -23.203,-86.593Z" style="fill:#4a89c5;"/></g></g></g></svg>