<?xml version="1.0" encoding="UTF-8" standalone="no"?><!DOCTYPE svg PUBLIC "-//W3C//DTD SVG 1.1//EN" "http://www.w3.org/Graphics/SVG/1.1/DTD/svg11.dtd"><svg width="100%" height="100%" viewBox="0 0 2500 2500" version="1.1" xmlns="http://www.w3.org/2000/svg" xmlns:xlink="http://www.w3.org/1999/xlink" xml:space="preserve" xmlns:serif="http://www.serif.com/" style="fill-rule:evenodd;clip-rule:evenodd;stroke-linecap:round;stroke-linejoin:round;stroke-miterlimit:1.5;"><rect x="0" y="0" width="2500" height="2500" style="fill:none;"/><g><g id="snowshowers"><ellipse id="clearsky" cx="943.845" cy="1035.12" rx="760.761" ry="756.352" style="fill:#ffd600;"/><clipPath id="_clip1"><ellipse cx="943.845" cy="1035.12" rx="760.761" ry="756.352"/></clipPath><g clip-path="url(#_clip1)"><ellipse cx="943.845" cy="1035.12" rx="610.335" ry="606.798" style="fill:#ffa500;"/></g><g id="heavysleet"><path id="cloudy" d="M940.456,1234.14c16.813,-237.006 215.811,-424.381 458.482,-424.381c199.748,-0 369.906,126.952 433.232,304.071c49.224,-26.414 105.562,-41.415 165.396,-41.415c192.64,-0 349.039,155.493 349.039,347.017c0,191.523 -159.074,355.148 -351.714,355.148l-1137.78,0c-151.76,0 -274.97,-128.986 -274.97,-279.867c0,-150.88 123.21,-273.376 274.97,-273.376c29.047,-0 57.048,4.487 83.341,12.803Z" style="fill:#808080;stroke:#cdcdcd;stroke-width:145.83px;"/></g><g><g id="snow"><path d="M1168.21,2179.42c10.866,-10.804 10.867,-28.346 0,-39.15l-159.972,-159.045c-10.867,-10.803 -28.511,-10.803 -39.377,0c-10.867,10.804 -10.867,28.346 -0.001,39.149l159.973,159.046c10.866,10.803 28.51,10.803 39.377,-0Z" style="fill:#00daff;"/><path d="M1068.53,2220.47c15.368,-0 27.844,-12.477 27.844,-27.844l0,-224.601c0,-15.367 -12.476,-27.844 -27.844,-27.844c-15.367,0 -27.844,12.477 -27.844,27.844l0,224.601c0,15.367 12.477,27.844 27.844,27.844Z" style="fill:#00daff;"/><path d="M968.858,2179.42c10.866,10.803 28.51,10.803 39.377,-0l159.972,-159.046c10.867,-10.803 10.866,-28.345 -0,-39.149c-10.867,-10.803 -28.511,-10.803 -39.377,0l-159.973,159.045c-10.866,10.804 -10.866,28.346 0.001,39.15Z" style="fill:#00daff;"/><path d="M927.571,2080.32c-0,15.279 12.404,27.683 27.683,27.683l226.557,0c15.278,0 27.683,-12.404 27.683,-27.683c-0,-15.278 -12.405,-27.682 -27.683,-27.682l-226.557,-0c-15.279,-0 -27.683,12.404 -27.683,27.682Z" style="fill:#00daff;"/></g><g id="snow1" serif:id="snow"><path d="M1572.62,2179.42c10.866,-10.804 10.867,-28.346 0,-39.15l-159.972,-159.045c-10.867,-10.803 -28.511,-10.803 -39.378,0c-10.866,10.804 -10.866,28.346 0,39.149l159.973,159.046c10.866,10.803 28.51,10.803 39.377,-0Z" style="fill:#00daff;"/><path d="M1472.94,2220.47c15.368,-0 27.844,-12.477 27.844,-27.844l0,-224.601c0,-15.367 -12.476,-27.844 -27.844,-27.844c-15.367,0 -27.844,12.477 -27.844,27.844l-0,224.601c-0,15.367 12.477,27.844 27.844,27.844Z" style="fill:#00daff;"/><path d="M1373.27,2179.42c10.867,10.803 28.511,10.803 39.378,-0l159.972,-159.046c10.867,-10.803 10.866,-28.345 -0,-39.149c-10.867,-10.803 -28.511,-10.803 -39.377,0l-159.973,159.045c-10.866,10.804 -10.866,28.346 0,39.15Z" style="fill:#00daff;"/><path d="M1331.98,2080.32c-0,15.279 12.404,27.683 27.683,27.683l226.557,0c15.278,0 27.682,-12.404 27.682,-27.683c0,-15.278 -12.404,-27.682 -27.682,-27.682l-226.557,-0c-15.279,-0 -27.683,12.404 -27.683,27.682Z" style="fill:#00daff;"/></g><g id="snow2" serif:id="snow"><path d="M1979.74,2179.42c10.866,-10.804 10.867,-28.346 0,-39.15l-159.972,-159.045c-10.867,-10.803 -28.511,-10.803 -39.377,0c-10.867,10.804 -10.867,28.346 -0.001,39.149l159.973,159.046c10.866,10.803 28.51,10.803 39.377,-0Z" style="fill:#00daff;"/><path d="M1880.06,2220.47c15.368,-0 27.844,-12.477 27.844,-27.844l0,-224.601c0,-15.367 -12.476,-27.844 -27.844,-27.844c-15.367,0 -27.844,12.477 -27.844,27.844l-0,224.601c-0,15.367 12.477,27.844 27.844,27.844Z" style="fill:#00daff;"/><path d="M1780.39,2179.42c10.866,10.803 28.51,10.803 39.377,-0l159.972,-159.046c10.867,-10.803 10.866,-28.345 -0,-39.149c-10.867,-10.803 -28.511,-10.803 -39.377,0l-159.973,159.045c-10.866,10.804 -10.866,28.346 0.001,39.15Z" style="fill:#00daff;"/><path d="M1739.1,2080.32c-0,15.279 12.404,27.683 27.683,27.683l226.557,0c15.278,0 27.683,-12.404 27.683,-27.683c-0,-15.278 -12.405,-27.682 -27.683,-27.682l-226.557,-0c-15.279,-0 -27.683,12.404 -27.683,27.682Z" style="fill:#00daff;"/></g></g></g></g></svg>